<svg width="308" height="163" viewBox="0 0 308 163" fill="none" xmlns="http://www.w3.org/2000/svg">
<g clip-path="url(#clip0_183_5)">
<path d="M0 147.092C0 147.422 0.34696 147.686 0.781471 147.686H307.219C307.65 147.686 308 147.422 308 147.092C308 146.761 307.653 146.498 307.219 146.498H0.781471C0.350203 146.498 0 146.761 0 147.092Z" fill="#2F2E43"/>
<path d="M255.904 147.932H52.7444V6.0856C52.7444 2.73167 55.2607 0 58.3574 0H250.291C253.385 0 255.904 2.72815 255.904 6.0856V147.932Z" fill="#2F2E41"/>
<path d="M272.814 163H35.3283C34.508 163 33.8367 162.448 33.613 161.59C33.3925 160.736 33.7006 159.882 34.401 159.421L52.9131 147.176H255.972L256.031 147.215L273.774 159.439C274.458 159.91 274.757 160.761 274.53 161.608C274.303 162.452 273.632 163 272.821 163H272.814Z" fill="#DFDFDF"/>
<path d="M250.343 9.04224H58.072V138.64H250.343V9.04224Z" fill="white"/>
<path d="M257.756 155.216H51.5868L61.7783 146.251H248.028L257.756 155.216Z" fill="#2F2E41"/>
<path d="M203.088 161.242H105.33L109.036 155.216H199.382L203.088 161.242Z" fill="#2F2E41"/>
<path d="M211.834 60.2901H201.649C200.763 60.2901 200.043 59.5096 200.043 58.5498C200.043 57.59 200.763 56.8096 201.649 56.8096H211.834C212.719 56.8096 213.439 57.59 213.439 58.5498C213.439 59.5096 212.719 60.2901 211.834 60.2901Z" fill="#DFDFDF"/>
<path d="M223.546 60.2901H218.792C217.907 60.2901 217.187 59.5096 217.187 58.5498C217.187 57.59 217.907 56.8096 218.792 56.8096H223.546C224.431 56.8096 225.151 57.59 225.151 58.5498C225.151 59.5096 224.431 60.2901 223.546 60.2901Z" fill="#DFDFDF"/>
<path d="M109.86 61.619H78.8604C77.278 61.619 75.9907 60.2232 75.9907 58.5076C75.9907 56.792 77.278 55.3962 78.8604 55.3962H109.86C111.442 55.3962 112.73 56.792 112.73 58.5076C112.73 60.2232 111.442 61.619 109.86 61.619Z" fill="#F59E0B"/>
<path d="M93.0534 69.9195H78.1147C77.1516 69.9195 76.3636 69.0687 76.3636 68.021C76.3636 66.9733 77.1484 66.1226 78.1147 66.1226H93.0534C94.0165 66.1226 94.8044 66.9733 94.8044 68.021C94.8044 69.0687 94.0197 69.9195 93.0534 69.9195Z" fill="#DFDFDF"/>
<path d="M175.409 77.4112H77.7386C76.7755 77.4112 75.9875 76.5604 75.9875 75.5127C75.9875 74.465 76.7723 73.6143 77.7386 73.6143H175.409C176.372 73.6143 177.16 74.465 177.16 75.5127C177.16 76.5604 176.376 77.4112 175.409 77.4112Z" fill="#DFDFDF"/>
<path d="M167.008 82.4739H77.7386C76.7755 82.4739 75.9875 81.6231 75.9875 80.5755C75.9875 79.5278 76.7723 78.677 77.7386 78.677H167.005C167.968 78.677 168.756 79.5278 168.756 80.5755C168.756 81.6231 167.971 82.4739 167.005 82.4739H167.008Z" fill="#DFDFDF"/>
<path d="M271.971 53.5014L267.198 55.203V47.7498H271.53L271.971 53.5014Z" fill="#F2A7AA"/>
<path d="M267.788 49.8135C270.415 49.8135 272.545 47.5044 272.545 44.656C272.545 41.8076 270.415 39.4985 267.788 39.4985C265.161 39.4985 263.031 41.8076 263.031 44.656C263.031 47.5044 265.161 49.8135 267.788 49.8135Z" fill="#F2A7AA"/>
<path d="M269.095 44.1461C268.297 44.1215 267.775 43.2461 267.467 42.4515C267.159 41.6535 266.838 40.7394 266.102 40.4089C265.499 40.1382 264.432 41.9558 263.956 41.4742C263.459 40.9714 263.943 38.3769 264.471 37.9128C265 37.4487 265.72 37.3573 266.4 37.3222C268.057 37.2378 269.727 37.3854 271.352 37.7511C272.357 37.9796 273.392 38.3206 274.118 39.1081C275.036 40.1066 275.272 41.6148 275.337 43.0246C275.405 44.466 275.327 45.9777 274.682 47.2363C274.037 48.4984 272.681 49.4301 271.384 49.1067C271.255 48.3402 271.384 47.5562 271.436 46.7793C271.485 46.0023 271.436 45.1656 270.999 44.5468C270.561 43.9281 269.627 43.6855 269.118 44.234" fill="#36344E"/>
<path d="M274.948 45.932C275.425 45.5523 275.992 45.2394 276.579 45.3168C277.211 45.4011 277.746 45.9672 277.909 46.6351C278.071 47.3031 277.889 48.0414 277.497 48.5863C277.104 49.1313 276.524 49.4934 275.908 49.6762C275.551 49.7817 275.162 49.8238 274.822 49.6656C274.322 49.4336 274.053 48.7375 274.248 48.1891" fill="#36344E"/>
<path d="M270.395 136.407H265.924V143.284H270.395V136.407Z" fill="#F2A7AA"/>
<path d="M261.569 147.45C261.099 147.45 260.68 147.436 260.366 147.405C259.179 147.285 258.044 146.336 257.474 145.78C257.217 145.531 257.136 145.133 257.269 144.789C257.363 144.543 257.555 144.36 257.791 144.286L260.93 143.312L266.011 139.593L266.066 139.702C266.089 139.744 266.585 140.718 266.754 141.375C266.819 141.625 266.799 141.836 266.705 141.997C266.637 142.11 266.546 142.173 266.469 142.212C266.559 142.317 266.848 142.528 267.736 142.683C269.03 142.908 269.306 141.449 269.316 141.389L269.325 141.34L269.364 141.312C269.98 140.88 270.36 140.686 270.493 140.728C270.574 140.756 270.71 140.799 271.08 144.768C271.115 144.891 271.375 145.805 271.199 146.677C271.008 147.626 267.182 147.299 266.417 147.225C266.394 147.225 263.531 147.45 261.566 147.45H261.569Z" fill="#36344E"/>
<path d="M283.126 131L279.332 133.565L282.688 139.4L286.482 136.835L283.126 131Z" fill="#F2A7AA"/>
<path d="M278.09 146.508C277.565 146.508 277.082 146.441 276.738 146.374C276.401 146.311 276.135 146.019 276.08 145.65C276.041 145.387 276.112 145.123 276.278 144.923L278.466 142.296L280.963 136.225L281.064 136.285C281.103 136.306 282.001 136.847 282.464 137.311C282.64 137.487 282.727 137.673 282.724 137.867C282.724 138 282.675 138.109 282.63 138.183C282.76 138.218 283.106 138.232 283.937 137.853C285.146 137.301 284.666 135.905 284.647 135.845L284.631 135.799L284.65 135.754C284.965 135.033 285.188 134.65 285.321 134.611C285.402 134.586 285.542 134.548 287.789 137.701C287.88 137.786 288.544 138.412 288.823 139.255C289.125 140.169 285.717 142.089 285.033 142.465C285.01 142.483 281.446 145.292 279.984 146.09C279.403 146.406 278.716 146.505 278.09 146.505V146.508Z" fill="#36344E"/>
<path d="M273.69 78.8843H261.17L260.035 91.5125L265.006 138.169H271.397L268.842 111.221L279.209 135.55L284.89 131.239L276.793 108.528C276.793 108.528 279.685 88.7422 277.412 83.8132C275.139 78.8843 273.69 78.8843 273.69 78.8843Z" fill="#36344E"/>
<path d="M279.916 79.6543H260.032L265.998 51.7856H274.659L279.916 79.6543Z" fill="#E6E6E6"/>
<path d="M255.093 51.2337C254.776 49.5392 255.356 47.9888 256.39 47.7743C257.425 47.5599 258.518 48.7587 258.835 50.4568C258.972 51.1318 258.949 51.8314 258.774 52.4994L260.032 59.703L256.783 60.2584L255.888 53.1006C255.486 52.5556 255.213 51.9158 255.093 51.2337Z" fill="#F2A7AA"/>
<path d="M274.449 51.7856H266.809L261.66 62.9549L259.717 54.5876L255.45 55.0798C255.45 55.0798 256.459 71.4311 260.875 70.8792C265.288 70.3272 275.584 55.5931 274.452 51.7892L274.449 51.7856Z" fill="#E6E6E6"/>
<path d="M282.983 94.2583C283.301 95.9529 282.721 97.5033 281.686 97.7177C280.652 97.9322 279.559 96.7334 279.241 95.0353C279.105 94.3603 279.128 93.6607 279.303 92.9927L278.045 85.7891L281.294 85.2336L282.189 92.3915C282.591 92.9364 282.863 93.5763 282.983 94.2583Z" fill="#F2A7AA"/>
<path d="M270.094 51.7856C270.094 51.7856 274.436 51.5852 274.659 51.7856C275.843 52.8368 282.795 90.6899 282.795 90.6899H278.392L274.241 71.2377L270.091 51.7856H270.094Z" fill="#E6E6E6"/>
</g>
<defs>
<clipPath id="clip0_183_5">
<rect width="308" height="163" fill="white"/>
</clipPath>
</defs>
</svg>
