<svg width="190" height="140" viewBox="0 0 190 140" fill="none" xmlns="http://www.w3.org/2000/svg">
<g clip-path="url(#clip0_198_414)">
<path d="M97.0368 139.637C102.751 139.637 107.384 134.795 107.384 128.823C107.384 122.851 102.751 118.01 97.0368 118.01C91.3222 118.01 86.6897 122.851 86.6897 128.823C86.6897 134.795 91.3222 139.637 97.0368 139.637Z" fill="#6C63FF"/>
<path d="M131.227 109.077C134.209 109.077 136.626 106.551 136.626 103.435C136.626 100.319 134.209 97.793 131.227 97.793C128.246 97.793 125.829 100.319 125.829 103.435C125.829 106.551 128.246 109.077 131.227 109.077Z" fill="#F2F2F2"/>
<path d="M95.9285 15.9862C79.7573 16.1055 66.5165 29.8394 66.2867 46.7384C66.2845 46.8944 66.2835 47.9914 66.2837 49.4273C66.284 51.531 67.0837 53.5484 68.507 55.0359C69.9303 56.5235 71.8607 57.3593 73.8736 57.3596C74.8714 57.3595 75.8593 57.1539 76.781 56.7546C77.7026 56.3553 78.54 55.7701 79.2453 55.0325C79.9505 54.295 80.5098 53.4194 80.8911 52.4559C81.2725 51.4923 81.4685 50.4597 81.4679 49.417C81.4679 48.4393 81.4667 47.7635 81.4667 47.7221C81.4662 45.1105 82.1163 42.5436 83.353 40.2742C84.5896 38.0047 86.3703 36.1107 88.5198 34.7786C90.6692 33.4464 93.1135 32.722 95.6122 32.6765C98.1108 32.6311 100.578 33.2661 102.77 34.5193C104.963 35.7724 106.805 37.6005 108.117 39.8236C109.428 42.0467 110.164 44.5883 110.25 47.1984C110.337 49.8085 109.772 52.3972 108.61 54.7099C107.449 57.0225 105.732 58.9794 103.628 60.3882L103.63 60.3915C103.63 60.3915 92.8271 67.659 89.5336 77.6299H89.5363C88.9574 79.6726 88.664 81.7921 88.6655 83.9225C88.6655 84.7983 88.7148 92.4609 88.81 98.6803C88.8433 100.826 89.6825 102.872 91.1465 104.378C92.6105 105.883 94.582 106.726 96.6356 106.725C97.6675 106.725 98.6892 106.512 99.6419 106.098C100.595 105.683 101.46 105.076 102.187 104.311C102.914 103.547 103.49 102.639 103.88 101.641C104.271 100.642 104.468 99.5734 104.462 98.495C104.429 92.7993 104.411 86.1674 104.411 85.6856C104.411 79.5632 110.063 73.4627 114.705 69.4845C120.051 64.9035 123.898 58.6608 125.443 51.6188C125.785 50.1693 125.973 48.6849 126.005 47.1924C126.005 43.0753 125.226 38.9988 123.712 35.1978C122.197 31.3969 119.979 27.9467 117.183 25.0459C114.387 22.1452 111.07 19.8513 107.422 18.2964C103.774 16.7415 99.8679 15.9563 95.9285 15.9862Z" fill="#6C63FF"/>
<path d="M189.732 139.934H0.268028C0.197008 139.934 0.128894 139.904 0.0786757 139.852C0.028457 139.799 0.000244141 139.728 0.000244141 139.654C0.000244141 139.58 0.028457 139.508 0.0786757 139.456C0.128894 139.404 0.197008 139.374 0.268028 139.374H189.732C189.803 139.374 189.871 139.404 189.922 139.456C189.972 139.508 190 139.58 190 139.654C190 139.728 189.972 139.799 189.922 139.852C189.871 139.904 189.803 139.934 189.732 139.934Z" fill="#3F3D56"/>
<path d="M76.0173 53.6069C74.0044 53.6067 72.074 52.7709 70.6506 51.2834C69.2272 49.7959 68.4274 47.7785 68.427 45.6748C68.427 44.2391 68.427 43.1421 68.43 42.9859C68.4939 38.0713 69.6782 33.2434 71.8846 28.9028C68.2594 34.0894 66.2661 40.3252 66.1805 46.7475C66.1783 46.9034 66.1773 48.0005 66.1775 49.4364C66.1776 51.5402 66.9773 53.5577 68.4006 55.0454C69.8239 56.533 71.7544 57.369 73.7674 57.3693C75.4216 57.3686 77.0304 56.8037 78.3493 55.7603C79.6683 54.717 80.6253 53.2522 81.0751 51.5886C79.6852 52.8905 77.8838 53.6094 76.0173 53.6069Z" fill="#3F3D56"/>
<path d="M96.443 32.7019C98.7703 32.8181 101.036 33.5228 103.045 34.7555C105.054 35.9883 106.747 37.7123 107.979 39.7795C109.21 41.8466 109.943 44.1952 110.114 46.6236C110.286 49.0519 109.89 51.4875 108.963 53.7211C110.305 52.0743 111.291 50.1445 111.854 48.0633C112.418 45.982 112.545 43.7983 112.228 41.6609C111.91 39.5236 111.156 37.4829 110.015 35.6779C108.875 33.873 107.375 32.3462 105.619 31.2018C103.863 30.0574 101.891 29.3221 99.8386 29.0462C97.7859 28.7703 95.7004 28.9603 93.7243 29.603C91.7481 30.2458 89.9279 31.3264 88.3876 32.771C86.8472 34.2156 85.6231 35.9904 84.7986 37.9743C86.2236 36.2223 88.0146 34.8358 90.0335 33.9217C92.0524 33.0076 94.2454 32.5902 96.443 32.7019Z" fill="#3F3D56"/>
<path d="M98.7785 102.974C96.7248 102.974 94.7532 102.131 93.2892 100.626C91.8251 99.1204 90.986 97.0739 90.9529 94.9279C90.8577 88.7103 90.8084 81.0477 90.8084 80.172C90.8069 78.0415 91.1002 75.922 91.6792 73.8793H91.6765C92.0185 72.854 92.4315 71.8561 92.9123 70.8936C91.4363 72.9492 90.2617 75.2232 89.4271 77.6407H89.4299C88.8509 79.6834 88.5576 81.8029 88.5591 83.9333C88.5591 84.8091 88.6084 92.4716 88.7036 98.6911C88.7369 100.837 89.576 102.883 91.0401 104.388C92.5041 105.893 94.4756 106.737 96.5292 106.736C98.2222 106.736 99.8695 106.162 101.224 105.101C102.579 104.039 103.567 102.547 104.042 100.849C102.603 102.219 100.725 102.977 98.7785 102.974Z" fill="#3F3D56"/>
<path d="M94.7571 137C93.2872 136.331 91.9863 135.314 90.9569 134.029C89.9275 132.745 89.1978 131.228 88.8255 129.598C88.4531 127.968 88.4483 126.271 88.8114 124.639C89.1744 123.007 89.8954 121.485 90.9175 120.194C89.7325 121.099 88.7452 122.256 88.0209 123.589C87.2966 124.923 86.852 126.402 86.7165 127.929C86.5811 129.456 86.7579 130.995 87.2353 132.445C87.7126 133.895 88.4796 135.222 89.4853 136.339C90.491 137.455 91.7124 138.335 93.0685 138.921C94.4245 139.506 95.8842 139.784 97.3507 139.734C98.8171 139.685 100.257 139.311 101.574 138.636C102.892 137.961 104.056 137 104.992 135.819C103.533 136.933 101.821 137.628 100.025 137.835C98.2293 138.043 96.4131 137.755 94.7571 137V137Z" fill="#3F3D56"/>
<path d="M131.663 68.8638L127.928 70.1462V64.5303H131.317L131.663 68.8638Z" fill="#F8A8AB"/>
<path d="M128.391 66.0853C130.446 66.0853 132.112 64.3445 132.112 62.197C132.112 60.0495 130.446 58.3086 128.391 58.3086C126.336 58.3086 124.67 60.0495 124.67 62.197C124.67 64.3445 126.336 66.0853 128.391 66.0853Z" fill="#F8A8AB"/>
<path d="M129.413 61.8106C128.79 61.7913 128.381 61.1334 128.14 60.5331C127.898 59.9329 127.649 59.2433 127.071 58.9957C126.598 58.7932 125.765 60.1633 125.393 59.7984C125.004 59.4179 125.383 57.4647 125.795 57.1143C126.208 56.7639 126.772 56.6954 127.303 56.6694C128.602 56.607 129.902 56.716 131.174 56.9939C131.961 57.165 132.769 57.4233 133.337 58.0161C134.055 58.77 134.239 59.9064 134.29 60.9692C134.344 62.0565 134.284 63.1941 133.778 64.1456C133.271 65.097 132.213 65.7984 131.198 65.5558C131.096 64.98 131.199 64.3882 131.239 63.802C131.279 63.2158 131.238 62.5856 130.895 62.1198C130.553 61.654 129.823 61.4689 129.426 61.8824" fill="#2F2E43"/>
<path d="M133.99 63.1585C134.363 62.8741 134.809 62.635 135.266 62.6941C135.513 62.7359 135.743 62.8521 135.928 63.0284C136.113 63.2048 136.244 63.4336 136.307 63.687C136.363 63.9417 136.363 64.2065 136.308 64.4613C136.252 64.7162 136.141 64.9545 135.984 65.1582C135.666 65.5641 135.23 65.8516 134.742 65.9777C134.465 66.0744 134.166 66.0719 133.891 65.9707C133.698 65.8756 133.545 65.7094 133.462 65.5039C133.379 65.2984 133.372 65.0681 133.442 64.8572" fill="#2F2E43"/>
<path d="M130.43 131.36H126.933V136.545H130.43V131.36Z" fill="#F8A8AB"/>
<path d="M123.526 139.683C123.159 139.683 122.832 139.674 122.585 139.65C121.657 139.561 120.77 138.843 120.324 138.425C120.227 138.333 120.159 138.212 120.13 138.078C120.101 137.944 120.113 137.804 120.164 137.678C120.2 137.586 120.256 137.505 120.327 137.439C120.398 137.374 120.482 137.325 120.573 137.299L123.027 136.566L127.001 133.763L127.046 133.846C127.262 134.248 127.442 134.67 127.584 135.108C127.61 135.184 127.62 135.265 127.613 135.346C127.607 135.427 127.584 135.505 127.545 135.575C127.5 135.646 127.436 135.702 127.361 135.736C127.432 135.814 127.658 135.975 128.353 136.09C129.366 136.258 129.58 135.159 129.589 135.114L129.596 135.078L129.626 135.057C130.109 134.733 130.406 134.584 130.508 134.616C130.571 134.635 130.678 134.67 130.967 137.659C131.107 138.125 131.139 138.618 131.06 139.099C130.912 139.815 127.919 139.569 127.32 139.513C127.303 139.515 125.062 139.682 123.528 139.682H123.526L123.526 139.683Z" fill="#2F2E43"/>
<path d="M140.387 127.283L137.42 129.217L140.046 133.616L143.013 131.683L140.387 127.283Z" fill="#F8A8AB"/>
<path d="M136.445 138.972C136.09 138.97 135.737 138.936 135.388 138.871C135.259 138.847 135.14 138.781 135.048 138.684C134.956 138.586 134.895 138.461 134.873 138.326C134.858 138.229 134.864 138.129 134.891 138.034C134.918 137.939 134.965 137.851 135.028 137.778L136.742 135.799L138.695 131.223L138.775 131.269C139.162 131.49 139.529 131.749 139.87 132.042C139.931 132.092 139.981 132.155 140.016 132.228C140.051 132.3 140.071 132.38 140.073 132.461C140.071 132.546 140.045 132.629 139.998 132.7C140.098 132.728 140.371 132.738 141.018 132.452C141.963 132.034 141.589 130.983 141.573 130.94L141.559 130.905L141.574 130.872C141.82 130.329 141.995 130.04 142.099 130.01C142.164 129.991 142.271 129.961 144.029 132.34C144.384 132.657 144.661 133.058 144.837 133.509C145.073 134.199 142.409 135.645 141.873 135.928C141.856 135.942 139.069 138.059 137.923 138.661C137.459 138.882 136.952 138.989 136.442 138.974L136.445 138.972Z" fill="#2F2E43"/>
<path d="M133.005 87.9999H123.214L122.326 97.5187L126.213 132.688H131.211L129.212 112.376L137.32 130.715L141.762 127.465L135.432 110.344C135.432 110.344 137.693 95.429 135.916 91.7135C134.14 87.9981 133.005 87.9995 133.005 87.9995L133.005 87.9999Z" fill="#2F2E43"/>
<path d="M137.875 88.5792H122.326L126.99 67.5703H133.765L137.875 88.5792Z" fill="#2F2E43"/>
<path d="M118.463 67.157C118.214 65.8796 118.67 64.712 119.478 64.5496C120.286 64.3872 121.143 65.2932 121.39 66.5706C121.496 67.08 121.479 67.6086 121.342 68.1097L122.326 73.539L119.784 73.9597L119.084 68.5635C118.77 68.1548 118.557 67.6718 118.463 67.157Z" fill="#F8A8AB"/>
<path d="M133.6 67.5702H127.625L123.598 75.9886L122.078 69.68L118.74 70.05C118.74 70.05 119.53 82.3764 122.982 81.9594C126.433 81.5424 134.484 70.4385 133.599 67.5684H133.601L133.6 67.5702Z" fill="#2F2E43"/>
<path d="M140.271 99.5866C140.52 100.864 140.064 102.032 139.256 102.194C138.448 102.356 137.591 101.45 137.344 100.173C137.239 99.6636 137.255 99.1349 137.392 98.6337L136.409 93.2044L138.95 92.7837L139.65 98.1799C139.964 98.5887 140.177 99.0716 140.271 99.5864L140.271 99.5866Z" fill="#F8A8AB"/>
<path d="M130.193 67.5706C130.193 67.5706 133.588 67.4206 133.765 67.5706C134.692 68.3613 140.127 96.8973 140.127 96.8973H136.684L130.193 67.5706Z" fill="#2F2E43"/>
<path d="M24.8049 81.1843L28.3316 88.4803L38.874 93.4895C40 95.4783 43.5781 95.6305 43.8384 94.345C44.1305 92.9023 39.4931 90.5806 39.4931 90.5806L30.6742 84.3466L29.9023 78.98L24.8049 81.1843Z" fill="#ED9DA0"/>
<path d="M25.2212 130.145L24.5708 135.582L28.3427 135.854L28.7324 130.145L25.2212 130.145Z" fill="#ED9DA0"/>
<path d="M25.741 134.766C25.404 134.393 25.0931 133.996 24.8108 133.577C24.2709 132.795 23.7911 136.805 23.7911 136.805C23.7911 136.805 23.2708 138.436 23.4014 139.252C23.532 140.067 26.5228 140.067 27.0431 139.932C27.5634 139.796 30.1644 139.932 30.1644 139.932H34.0664C37.4482 138.301 34.0664 137.213 34.0664 137.213C33.0257 137.077 29.5143 133.679 29.5143 133.679L28.7339 132.184C28.2138 132.048 27.6932 134.087 27.6932 134.087L25.741 134.766Z" fill="#2F2E43"/>
<path d="M15.4659 130.212L14.8152 135.649L18.5873 135.921L18.977 130.212H15.4659Z" fill="#ED9DA0"/>
<path d="M15.9864 134.834C15.6495 134.462 15.3386 134.064 15.0562 133.645C14.5157 132.863 14.0362 136.873 14.0362 136.873C14.0362 136.873 13.516 138.368 13.6465 139.184C13.7769 139.999 16.7678 139.999 17.2881 139.864C17.8085 139.729 20.4095 140 20.4095 140H24.3114C27.6932 138.369 24.3114 137.281 24.3114 137.281C23.2708 137.145 19.7593 133.747 19.7593 133.747L18.9789 132.252C18.4588 132.116 17.9383 134.155 17.9383 134.155L15.9864 134.834Z" fill="#2F2E43"/>
<path d="M19.7582 95.1436C19.2379 95.8237 19.4982 98.1341 19.4982 98.1341C19.4982 98.1341 18.5878 105.61 18.9781 106.29C19.3683 106.969 18.718 107.513 18.3273 108.465C17.9366 109.416 17.5467 111.727 17.5467 111.727C15.3356 113.63 15.4656 122.329 15.4656 122.329L14.686 130.077C14.9461 130.892 18.588 131.028 19.1085 130.892C19.629 130.757 21.1896 118.523 21.1896 118.523L24.7012 111.591C24.7012 111.591 24.4411 130.077 24.4411 130.893C24.4411 131.709 27.9528 131.301 28.7332 131.301C29.5135 131.301 29.5135 117.708 29.5135 117.708L30.2939 114.174L34.4561 97.999V96.0961L33.8054 95.1446C33.8054 95.1446 20.2784 94.4639 19.7582 95.1436Z" fill="#2F2E43"/>
<path d="M27.4972 62.0449C26.68 63.9478 27.1637 66.6041 28.7987 69.5209L22.1653 66.2591L23.2059 65.3076L22.9465 62.5895L27.4972 62.0449Z" fill="#ED9DA0"/>
<path d="M25.4809 64.2882C27.7078 64.2882 29.513 62.4016 29.513 60.0743C29.513 57.747 27.7078 55.8604 25.4809 55.8604C23.254 55.8604 21.4487 57.747 21.4487 60.0743C21.4487 62.4016 23.254 64.2882 25.4809 64.2882Z" fill="#ED9DA0"/>
<path d="M27.4971 66.3948C28.3657 66.9344 28.8853 67.9254 29.1835 68.9352C29.7356 70.8033 30.0679 72.7347 30.1731 74.6867L30.488 80.5306L34.3899 96.0266C31.0085 99.017 29.058 98.3374 24.5052 95.8907C19.9523 93.444 19.4326 96.7069 19.4326 96.7069C19.4326 96.7069 19.0429 96.571 19.4326 96.1633C19.8223 95.7556 19.4326 96.1633 19.0429 95.756C18.6532 95.3487 19.0429 95.756 19.1729 95.3487C19.3029 94.9415 19.1729 95.2126 19.0429 95.077C18.9128 94.9413 19.563 93.7168 19.563 93.7168L18.5229 83.5217L17.2214 69.1135C18.7822 67.0744 23.2041 65.3076 23.2041 65.3076L27.2368 68.2981C28.5383 68.8417 27.4969 66.667 27.4969 66.667L27.4971 66.3948Z" fill="#E6E6E6"/>
<path d="M15.076 77.7446L14.5559 85.9003L21.1899 95.823C21.1899 98.1338 22.3604 98.6774 22.3604 98.6774C22.8037 97.9378 23.1949 97.1655 23.5308 96.3666C24.1816 94.8713 23.1411 93.6481 23.1411 93.6481L18.5891 83.5897L20.5401 78.5604L15.076 77.7446Z" fill="#ED9DA0"/>
<path d="M17.286 69.1816C15.0749 69.9972 14.6848 78.8327 14.6848 78.8327C17.286 77.3375 20.4076 79.7842 20.4076 79.7842C20.4076 79.7842 21.0583 77.4734 21.8383 74.4831C22.074 73.6419 22.1021 72.7521 21.9202 71.8964C21.7382 71.0408 21.3521 70.2472 20.7977 69.5895C20.7977 69.5895 19.4983 68.3663 17.286 69.1816Z" fill="#E6E6E6"/>
<path d="M24.3653 60.146C24.8138 60.2071 25.152 59.7276 25.3085 59.2841C25.4651 58.8407 25.5856 58.325 25.9747 58.0855C26.5075 57.7585 27.1888 58.1519 27.7977 58.0441C28.4855 57.9223 28.9326 57.1605 28.968 56.4324C29.0035 55.7044 28.7258 55.0052 28.4534 54.333L28.3584 55.1672C28.3711 54.8845 28.3142 54.6031 28.1931 54.3499C28.072 54.0967 27.8907 53.8803 27.6667 53.7212L27.7886 54.9453C27.7626 54.7765 27.7049 54.6148 27.6189 54.4694C27.5329 54.324 27.4203 54.1977 27.2875 54.0978C27.1548 53.998 27.0044 53.9265 26.8452 53.8874C26.6859 53.8484 26.5209 53.8426 26.3595 53.8703L26.3793 54.5996C25.5872 54.4721 24.7847 54.431 23.9845 54.477C23.18 54.5257 22.4102 54.8359 21.7827 55.3641C20.8796 56.1846 20.5496 57.5351 20.6595 58.7803C20.7693 60.0254 21.2627 61.1953 21.7755 62.3257C21.9044 62.6099 22.0829 62.9307 22.382 62.9669C22.5176 62.9688 22.6499 62.9235 22.7582 62.8382C22.8665 62.7529 22.9445 62.6323 22.9801 62.4955C23.0444 62.2197 23.0419 61.9314 22.9727 61.6568C22.867 61.2434 22.8335 60.8135 22.8738 60.3876C22.9446 59.9671 23.2344 59.5514 23.6399 59.5001C24.0454 59.4488 24.4607 59.9332 24.2657 60.309L24.3653 60.146Z" fill="#2F2E43"/>
<path d="M38.3718 98.794L44.9879 85.5544C45.1155 85.2998 45.3346 85.1085 45.5969 85.0224C45.8593 84.9364 46.1437 84.9626 46.3876 85.0954L55.9911 90.3371C56.2347 90.4705 56.4178 90.6994 56.5001 90.9736C56.5824 91.2478 56.5573 91.545 56.4303 91.7999L49.8141 105.039C49.6865 105.294 49.4675 105.485 49.2051 105.571C48.9427 105.657 48.6584 105.631 48.4145 105.498L38.811 100.257C38.5674 100.123 38.3844 99.8943 38.302 99.6201C38.2197 99.346 38.2448 99.0488 38.3718 98.794Z" fill="#3F3D56"/>
</g>
<defs>
<clipPath id="clip0_198_414">
<rect width="190" height="140" fill="white"/>
</clipPath>
</defs>
</svg>
