<svg width="167" height="129" viewBox="0 0 167 129" fill="none" xmlns="http://www.w3.org/2000/svg">
<g clip-path="url(#clip0_198_414)">
<path d="M85.2902 128.666C90.313 128.666 94.3848 124.205 94.3848 118.702C94.3848 113.199 90.313 108.738 85.2902 108.738C80.2674 108.738 76.1957 113.199 76.1957 118.702C76.1957 124.205 80.2674 128.666 85.2902 128.666Z" fill="#6C63FF"/>
<path d="M115.342 100.507C117.963 100.507 120.087 98.1792 120.087 95.308C120.087 92.4369 117.963 90.1094 115.342 90.1094C112.721 90.1094 110.597 92.4369 110.597 95.308C110.597 98.1792 112.721 100.507 115.342 100.507Z" fill="#F2F2F2"/>
<path d="M84.3161 14.7302C70.1025 14.8402 58.4645 27.495 58.2625 43.0662C58.2606 43.2099 58.2597 44.2208 58.2599 45.5439C58.2601 47.4822 58.9631 49.3412 60.2141 50.7118C61.4651 52.0825 63.1618 52.8526 64.931 52.8529C65.808 52.8528 66.6763 52.6633 67.4864 52.2954C68.2965 51.9275 69.0326 51.3883 69.6524 50.7087C70.2723 50.0291 70.7639 49.2223 71.0991 48.3345C71.4343 47.4466 71.6065 46.4951 71.606 45.5344C71.606 44.6334 71.605 44.0108 71.605 43.9727C71.6045 41.5662 72.1759 39.2011 73.2629 37.1099C74.3498 35.0187 75.9149 33.2736 77.8042 32.0461C79.6935 30.8186 81.8419 30.1511 84.0381 30.1092C86.2342 30.0673 88.4025 30.6525 90.3297 31.8072C92.2568 32.9619 93.8764 34.6463 95.0292 36.6947C96.1819 38.7432 96.8281 41.0851 96.9041 43.4901C96.9802 45.8951 96.4835 48.2804 95.4629 50.4114C94.4423 52.5423 92.933 54.3455 91.0834 55.6435L91.0857 55.6466C91.0857 55.6466 81.5902 62.343 78.6953 71.5305H78.6977C78.1888 73.4127 77.931 75.3657 77.9323 77.3288C77.9323 78.1357 77.9756 85.1962 78.0593 90.927C78.0886 92.9043 78.8262 94.7898 80.113 96.1766C81.3998 97.5634 83.1326 98.3404 84.9376 98.3399C85.8446 98.3398 86.7426 98.1433 87.58 97.7616C88.4174 97.3799 89.1776 96.8205 89.8169 96.1157C90.4563 95.4109 90.9621 94.5745 91.3053 93.6547C91.6484 92.7349 91.8222 91.7499 91.8166 90.7562C91.7876 85.508 91.7718 79.3972 91.7718 78.9533C91.7718 73.3119 96.7393 67.6907 100.82 64.0252C105.518 59.804 108.9 54.0519 110.258 47.5632C110.558 46.2275 110.724 44.8598 110.752 43.4846C110.752 39.6909 110.067 35.9347 108.736 32.4324C107.405 28.9301 105.455 25.751 102.998 23.0782C100.54 20.4053 97.6245 18.2917 94.4182 16.859C91.212 15.4262 87.7787 14.7028 84.3161 14.7302Z" fill="#6C63FF"/>
<path d="M166.765 128.939H0.235612C0.173189 128.939 0.113321 128.912 0.0691814 128.864C0.0250418 128.815 0.000244141 128.75 0.000244141 128.681C0.000244141 128.613 0.0250418 128.547 0.0691814 128.499C0.113321 128.451 0.173189 128.423 0.235612 128.423H166.765C166.827 128.423 166.887 128.451 166.931 128.499C166.975 128.547 167 128.613 167 128.681C167 128.75 166.975 128.815 166.931 128.864C166.887 128.912 166.827 128.939 166.765 128.939Z" fill="#3F3D56"/>
<path d="M66.8152 49.3953C65.0459 49.3951 63.3492 48.6251 62.0981 47.2544C60.847 45.8838 60.144 44.0249 60.1437 42.0865C60.1437 40.7636 60.1437 39.7528 60.1463 39.6089C60.2025 35.0804 61.2435 30.6319 63.1828 26.6323C59.9964 31.4114 58.2444 37.1572 58.1691 43.0749C58.1672 43.2186 58.1664 44.2295 58.1665 45.5525C58.1666 47.491 58.8695 49.35 60.1205 50.7208C61.3715 52.0916 63.0683 52.8618 64.8377 52.8621C66.2916 52.8615 67.7056 52.341 68.8649 51.3796C70.0242 50.4182 70.8654 49.0685 71.2607 47.5356C70.0391 48.7353 68.4557 49.3977 66.8152 49.3953Z" fill="#3F3D56"/>
<path d="M84.7683 30.1326C86.8138 30.2396 88.8051 30.8889 90.5711 32.0248C92.3372 33.1607 93.8252 34.7493 94.9074 36.654C95.9896 38.5588 96.6338 40.7228 96.7844 42.9604C96.9351 45.1979 96.5879 47.4421 95.7725 49.5003C96.9519 47.9829 97.8187 46.2047 98.3139 44.2869C98.8091 42.3692 98.921 40.3571 98.6421 38.3876C98.3631 36.4182 97.6999 34.5379 96.6975 32.8747C95.6952 31.2116 94.3772 29.8048 92.8337 28.7503C91.2901 27.6958 89.5571 27.0183 87.7528 26.7641C85.9486 26.5099 84.1156 26.6849 82.3786 27.2772C80.6417 27.8695 79.0418 28.8651 77.688 30.1962C76.3341 31.5273 75.2582 33.1627 74.5334 34.9907C75.786 33.3763 77.3602 32.0988 79.1347 31.2565C80.9092 30.4142 82.8367 30.0297 84.7683 30.1326Z" fill="#3F3D56"/>
<path d="M86.8211 94.883C85.0159 94.8834 83.283 94.1062 81.9962 92.7192C80.7094 91.3322 79.9719 89.4466 79.9428 87.4691C79.8591 81.7401 79.8158 74.6796 79.8158 73.8726C79.8145 71.9096 80.0723 69.9566 80.5812 68.0744H80.5788C80.8794 67.1296 81.2424 66.2102 81.665 65.3232C80.3677 67.2174 79.3353 69.3127 78.6017 71.5402H78.6042C78.0953 73.4224 77.8374 75.3754 77.8388 77.3385C77.8388 78.1454 77.8821 85.2059 77.9657 90.9367C77.995 92.914 78.7326 94.7995 80.0194 96.1863C81.3062 97.5731 83.039 98.3501 84.8441 98.3496C86.3321 98.3494 87.78 97.8206 88.9706 96.8426C90.1612 95.8646 91.0303 94.49 91.4475 92.9251C90.1826 94.1877 88.5323 94.8861 86.8211 94.883Z" fill="#3F3D56"/>
<path d="M83.2866 126.236C81.9946 125.619 80.8512 124.682 79.9464 123.498C79.0416 122.315 78.4003 120.917 78.073 119.415C77.7457 117.914 77.7415 116.349 78.0606 114.846C78.3797 113.342 79.0134 111.94 79.9118 110.75C78.8703 111.584 78.0024 112.65 77.3658 113.879C76.7292 115.107 76.3384 116.47 76.2194 117.877C76.1003 119.284 76.2558 120.703 76.6753 122.039C77.0949 123.375 77.769 124.598 78.653 125.626C79.5369 126.655 80.6105 127.466 81.8024 128.006C82.9943 128.545 84.2773 128.801 85.5662 128.755C86.8551 128.71 88.1206 128.365 89.2784 127.743C90.4363 127.121 91.4602 126.236 92.2821 125.147C91.0002 126.174 89.4951 126.814 87.9168 127.005C86.3385 127.196 84.7421 126.931 83.2866 126.236V126.236Z" fill="#3F3D56"/>
<path d="M115.725 63.453L112.443 64.6346V59.46H115.421L115.725 63.453Z" fill="#F8A8AB"/>
<path d="M112.849 60.8928C114.655 60.8928 116.119 59.2887 116.119 57.3099C116.119 55.3312 114.655 53.7271 112.849 53.7271C111.043 53.7271 109.579 55.3312 109.579 57.3099C109.579 59.2887 111.043 60.8928 112.849 60.8928Z" fill="#F8A8AB"/>
<path d="M113.747 56.9541C113.2 56.9364 112.84 56.3301 112.628 55.777C112.416 55.224 112.197 54.5885 111.689 54.3604C111.273 54.1738 110.54 55.4363 110.214 55.1001C109.872 54.7494 110.205 52.9497 110.567 52.6268C110.93 52.304 111.426 52.2409 111.893 52.2169C113.034 52.1594 114.177 52.2599 115.295 52.5159C115.987 52.6735 116.697 52.9116 117.196 53.4578C117.827 54.1525 117.989 55.1996 118.034 56.1788C118.081 57.1807 118.028 58.229 117.584 59.1057C117.139 59.9824 116.208 60.6286 115.316 60.4051C115.226 59.8745 115.317 59.3292 115.353 58.7891C115.388 58.249 115.351 57.6682 115.05 57.239C114.749 56.8098 114.108 56.6393 113.759 57.0203" fill="#2F2E43"/>
<path d="M117.77 58.196C118.098 57.9339 118.49 57.7136 118.892 57.7681C119.109 57.8066 119.311 57.9137 119.474 58.0762C119.636 58.2387 119.752 58.4495 119.806 58.6829C119.856 58.9176 119.856 59.1616 119.807 59.3965C119.758 59.6313 119.661 59.8509 119.523 60.0386C119.243 60.4126 118.86 60.6775 118.431 60.7937C118.188 60.8828 117.925 60.8805 117.683 60.7872C117.513 60.6996 117.379 60.5465 117.306 60.3571C117.233 60.1677 117.227 59.9555 117.288 59.7613" fill="#2F2E43"/>
<path d="M114.641 121.039H111.568V125.817H114.641V121.039Z" fill="#F8A8AB"/>
<path d="M108.573 128.708C108.25 128.708 107.963 128.7 107.746 128.678C106.93 128.596 106.151 127.934 105.759 127.549C105.673 127.464 105.613 127.352 105.588 127.229C105.563 127.106 105.573 126.977 105.618 126.86C105.65 126.776 105.699 126.701 105.761 126.641C105.823 126.58 105.897 126.536 105.977 126.511L108.134 125.836L111.627 123.253L111.667 123.33C111.857 123.7 112.015 124.089 112.14 124.492C112.163 124.562 112.172 124.637 112.166 124.712C112.16 124.786 112.139 124.858 112.106 124.923C112.066 124.988 112.009 125.04 111.943 125.071C112.007 125.143 112.204 125.291 112.815 125.398C113.706 125.552 113.894 124.54 113.902 124.499L113.908 124.465L113.935 124.446C114.359 124.147 114.62 124.01 114.71 124.039C114.765 124.057 114.859 124.089 115.113 126.844C115.236 127.272 115.265 127.727 115.195 128.17C115.065 128.83 112.435 128.603 111.908 128.551C111.893 128.553 109.923 128.707 108.574 128.707H108.573L108.573 128.708Z" fill="#2F2E43"/>
<path d="M123.393 117.282L120.785 119.064L123.093 123.118L125.701 121.336L123.393 117.282Z" fill="#F8A8AB"/>
<path d="M119.928 128.053C119.616 128.051 119.305 128.02 118.999 127.96C118.885 127.938 118.781 127.877 118.7 127.788C118.619 127.698 118.565 127.583 118.546 127.458C118.533 127.368 118.538 127.276 118.562 127.189C118.585 127.101 118.627 127.021 118.683 126.953L120.189 125.13L121.906 120.913L121.976 120.955C122.316 121.159 122.638 121.398 122.938 121.668C122.992 121.714 123.036 121.772 123.067 121.839C123.097 121.906 123.115 121.979 123.117 122.053C123.115 122.132 123.092 122.209 123.051 122.274C123.139 122.3 123.378 122.309 123.948 122.045C124.778 121.661 124.45 120.692 124.435 120.652L124.423 120.62L124.436 120.59C124.652 120.09 124.806 119.823 124.897 119.795C124.954 119.778 125.048 119.75 126.594 121.942C126.906 122.234 127.149 122.604 127.304 123.02C127.511 123.655 125.17 124.988 124.699 125.248C124.684 125.261 122.234 127.212 121.227 127.767C120.819 127.971 120.374 128.069 119.925 128.055L119.928 128.053Z" fill="#2F2E43"/>
<path d="M116.905 81.0858H108.299L107.518 89.8567L110.935 122.263H115.328L113.571 103.546L120.697 120.444L124.601 117.45L119.038 101.674C119.038 101.674 121.025 87.9312 119.463 84.5076C117.902 81.0841 116.905 81.0854 116.905 81.0854L116.905 81.0858Z" fill="#2F2E43"/>
<path d="M121.185 81.6194H107.518L111.617 62.2612H117.573L121.185 81.6194Z" fill="#2F2E43"/>
<path d="M104.123 61.8803C103.904 60.7033 104.305 59.6274 105.015 59.4778C105.725 59.3282 106.479 60.163 106.696 61.34C106.788 61.8094 106.774 62.2965 106.653 62.7582L107.518 67.7609L105.284 68.1486L104.669 63.1763C104.393 62.7997 104.206 62.3547 104.123 61.8803Z" fill="#F8A8AB"/>
<path d="M117.427 62.261H112.176L108.636 70.0179L107.3 64.205L104.366 64.5459C104.366 64.5459 105.06 75.9038 108.094 75.5196C111.128 75.1354 118.204 64.9039 117.426 62.2593H117.428L117.427 62.261Z" fill="#2F2E43"/>
<path d="M123.291 91.7621C123.51 92.9391 123.109 94.0152 122.399 94.1646C121.688 94.314 120.935 93.4795 120.718 92.3024C120.626 91.833 120.64 91.3458 120.761 90.884L119.896 85.8813L122.13 85.4937L122.745 90.4659C123.021 90.8425 123.208 91.2875 123.291 91.7619L123.291 91.7621Z" fill="#F8A8AB"/>
<path d="M114.433 62.2616C114.433 62.2616 117.417 62.1234 117.572 62.2616C118.387 62.9902 123.165 89.2841 123.165 89.2841H120.138L114.433 62.2616Z" fill="#2F2E43"/>
<path d="M21.8021 74.8055L24.9019 81.5283L34.1681 86.1439C35.1578 87.9764 38.3028 88.1167 38.5315 86.9322C38.7883 85.6029 34.7123 83.4635 34.7123 83.4635L26.9609 77.7194L26.2824 72.7744L21.8021 74.8055Z" fill="#ED9DA0"/>
<path d="M22.1679 119.919L21.5963 124.929L24.9116 125.179L25.2541 119.919L22.1679 119.919Z" fill="#ED9DA0"/>
<path d="M22.6249 124.177C22.3287 123.834 22.0555 123.467 21.8073 123.081C21.3327 122.36 20.9111 126.056 20.9111 126.056C20.9111 126.056 20.4537 127.559 20.5685 128.31C20.6834 129.062 23.312 129.062 23.7694 128.937C24.2267 128.812 26.5129 128.937 26.5129 128.937H29.9425C32.9149 127.434 29.9425 126.432 29.9425 126.432C29.0278 126.307 25.9414 123.175 25.9414 123.175L25.2555 121.797C24.7983 121.672 24.3408 123.551 24.3408 123.551L22.6249 124.177Z" fill="#2F2E43"/>
<path d="M13.5937 119.981L13.0217 124.991L16.3372 125.242L16.6797 119.981H13.5937Z" fill="#ED9DA0"/>
<path d="M14.0512 124.24C13.755 123.897 13.4818 123.53 13.2336 123.144C12.7586 122.424 12.337 126.119 12.337 126.119C12.337 126.119 11.8799 127.497 11.9945 128.248C12.1092 129 14.738 128.999 15.1954 128.875C15.6527 128.751 17.9389 129 17.9389 129H21.3684C24.3409 127.497 21.3684 126.495 21.3684 126.495C20.4538 126.369 17.3674 123.238 17.3674 123.238L16.6815 121.86C16.2243 121.735 15.7668 123.614 15.7668 123.614L14.0512 124.24Z" fill="#2F2E43"/>
<path d="M17.3665 87.6677C16.9092 88.2944 17.1379 90.4233 17.1379 90.4233C17.1379 90.4233 16.3377 97.3119 16.6808 97.9381C17.0238 98.5644 16.4522 99.0653 16.1088 99.9422C15.7654 100.819 15.4227 102.948 15.4227 102.948C13.4793 104.701 13.5935 112.717 13.5935 112.717L12.9083 119.856C13.1369 120.608 16.3379 120.733 16.7954 120.608C17.2529 120.483 18.6246 109.211 18.6246 109.211L21.7111 102.823C21.7111 102.823 21.4826 119.856 21.4826 120.609C21.4826 121.361 24.5691 120.984 25.255 120.984C25.9409 120.984 25.9409 108.459 25.9409 108.459L26.6269 105.203L30.2852 90.2988V88.5454L29.7132 87.6687C29.7132 87.6687 17.8237 87.0415 17.3665 87.6677Z" fill="#2F2E43"/>
<path d="M24.1685 57.1699C23.4502 58.9233 23.8754 61.3709 25.3125 64.0585L19.4821 61.053L20.3967 60.1763L20.1687 57.6717L24.1685 57.1699Z" fill="#ED9DA0"/>
<path d="M22.3963 59.2369C24.3537 59.2369 25.9404 57.4985 25.9404 55.354C25.9404 53.2096 24.3537 51.4712 22.3963 51.4712C20.439 51.4712 18.8523 53.2096 18.8523 55.354C18.8523 57.4985 20.439 59.2369 22.3963 59.2369Z" fill="#ED9DA0"/>
<path d="M24.1685 61.1775C24.932 61.6747 25.3886 62.5879 25.6508 63.5183C26.136 65.2396 26.4281 67.0193 26.5206 68.818L26.7973 74.2026L30.2269 88.4811C27.2548 91.2366 25.5405 90.6103 21.5387 88.3559C17.537 86.1014 17.0802 89.1079 17.0802 89.1079C17.0802 89.1079 16.7377 88.9827 17.0802 88.6071C17.4227 88.2314 17.0802 88.6071 16.7377 88.2318C16.3951 87.8565 16.7377 88.2318 16.852 87.8565C16.9662 87.4813 16.8519 87.7311 16.7377 87.6061C16.6234 87.4811 17.1948 86.3528 17.1948 86.3528L16.2807 76.9587L15.1367 63.6826C16.5086 61.8038 20.3951 60.1758 20.3951 60.1758L23.9397 62.9313C25.0837 63.4322 24.1683 61.4283 24.1683 61.4283L24.1685 61.1775Z" fill="#E6E6E6"/>
<path d="M13.251 71.6362L12.7938 79.1511L18.6247 88.2942C18.6247 90.4234 19.6535 90.9243 19.6535 90.9243C20.0432 90.2428 20.387 89.5312 20.6823 88.795C21.2543 87.4173 20.3398 86.2901 20.3398 86.2901L16.3387 77.022L18.0536 72.3879L13.251 71.6362Z" fill="#ED9DA0"/>
<path d="M15.1934 63.7455C13.25 64.497 12.9071 72.6384 12.9071 72.6384C15.1934 71.2606 17.9371 73.5151 17.9371 73.5151C17.9371 73.5151 18.5091 71.3858 19.1947 68.6305C19.4018 67.8554 19.4265 67.0355 19.2666 66.2471C19.1067 65.4587 18.7673 64.7274 18.28 64.1214C18.28 64.1214 17.1379 62.9942 15.1934 63.7455Z" fill="#E6E6E6"/>
<path d="M21.4158 55.42C21.81 55.4763 22.1073 55.0345 22.2449 54.6259C22.3825 54.2172 22.4884 53.7421 22.8304 53.5214C23.2987 53.2201 23.8975 53.5826 24.4328 53.4833C25.0373 53.371 25.4302 52.6691 25.4614 51.9982C25.4925 51.3274 25.2485 50.6832 25.0091 50.0638L24.9256 50.8324C24.9367 50.5719 24.8867 50.3126 24.7802 50.0793C24.6738 49.846 24.5145 49.6466 24.3176 49.5L24.4248 50.6279C24.4018 50.4724 24.3511 50.3234 24.2755 50.1894C24.2 50.0554 24.101 49.9391 23.9843 49.8471C23.8676 49.755 23.7355 49.6892 23.5955 49.6532C23.4556 49.6172 23.3105 49.6119 23.1686 49.6374L23.186 50.3094C22.4898 50.1919 21.7844 50.1541 21.0811 50.1964C20.374 50.2413 19.6974 50.5271 19.1458 51.0138C18.3521 51.7699 18.0621 53.0142 18.1586 54.1616C18.2552 55.3089 18.6888 56.3869 19.1396 57.4284C19.2528 57.6903 19.4097 57.9859 19.6726 58.0193C19.7918 58.021 19.9081 57.9793 20.0033 57.9007C20.0985 57.822 20.1671 57.711 20.1983 57.5849C20.2548 57.3307 20.2526 57.0651 20.1918 56.8121C20.0989 56.4312 20.0695 56.035 20.1049 55.6426C20.1671 55.2552 20.4218 54.8721 20.7783 54.8248C21.1347 54.7776 21.4997 55.2239 21.3283 55.5702L21.4158 55.42Z" fill="#2F2E43"/>
<path d="M33.7268 91.0312L39.5421 78.8319C39.6542 78.5973 39.8467 78.4211 40.0774 78.3418C40.308 78.2625 40.5579 78.2867 40.7723 78.409L49.2133 83.2389C49.4274 83.3618 49.5883 83.5727 49.6607 83.8253C49.733 84.078 49.711 84.3518 49.5993 84.5867L43.7841 96.786C43.6719 97.0206 43.4794 97.1969 43.2488 97.2762C43.0181 97.3555 42.7682 97.3313 42.5538 97.2089L34.1128 92.3789C33.8988 92.256 33.7379 92.0451 33.6655 91.7925C33.5932 91.5399 33.6152 91.2661 33.7268 91.0312Z" fill="#3F3D56"/>
</g>
<defs>
<clipPath id="clip0_198_414">
<rect width="167" height="129" fill="white"/>
</clipPath>
</defs>
</svg>
