<svg width="265" height="191" viewBox="0 0 265 191" fill="none" xmlns="http://www.w3.org/2000/svg">
<g clip-path="url(#clip0_183_61)">
<path d="M263.675 0H122.231C121.499 0 120.906 0.55982 120.906 1.25039V68.7716C120.906 69.4622 121.499 70.022 122.231 70.022H263.675C264.407 70.022 265 69.4622 265 68.7716V1.25039C265 0.55982 264.407 0 263.675 0Z" fill="white"/>
<path d="M122.086 0.302514C121.893 0.303091 121.708 0.375731 121.572 0.504578C121.435 0.633425 121.358 0.808013 121.358 0.99023V69.2292C121.358 69.4114 121.435 69.586 121.572 69.7148C121.708 69.8437 121.893 69.9163 122.086 69.9169H264.027C264.22 69.9163 264.405 69.8437 264.542 69.7148C264.678 69.586 264.755 69.4114 264.756 69.2292V0.991793C264.755 0.809576 264.678 0.634988 264.542 0.506141C264.405 0.377294 264.22 0.304654 264.027 0.304077H122.086M122.086 0.0727539H264.027C264.285 0.0727539 264.533 0.169581 264.716 0.341934C264.898 0.514287 265.001 0.748048 265.001 0.991793V69.2292C265.001 69.4729 264.898 69.7067 264.716 69.879C264.533 70.0514 264.285 70.1482 264.027 70.1482H122.086C121.828 70.1482 121.58 70.0514 121.398 69.879C121.215 69.7067 121.113 69.4729 121.113 69.2292V0.991793C121.113 0.748048 121.215 0.514287 121.398 0.341934C121.58 0.169581 121.828 0.0727539 122.086 0.0727539Z" fill="#090814"/>
<path d="M122.086 0.0727539H264.027C264.285 0.0727539 264.533 0.169581 264.716 0.341934C264.898 0.514287 265.001 0.748048 265.001 0.991793V6.04651H121.113V0.991793C121.113 0.748048 121.215 0.514287 121.398 0.341934C121.58 0.169581 121.828 0.0727539 122.086 0.0727539Z" fill="#090814"/>
<path d="M125.799 3.88958C126.424 3.88958 126.931 3.41149 126.931 2.82174C126.931 2.23199 126.424 1.75391 125.799 1.75391C125.174 1.75391 124.668 2.23199 124.668 2.82174C124.668 3.41149 125.174 3.88958 125.799 3.88958Z" fill="white"/>
<path d="M130.094 3.88958C130.719 3.88958 131.226 3.41149 131.226 2.82174C131.226 2.23199 130.719 1.75391 130.094 1.75391C129.469 1.75391 128.963 2.23199 128.963 2.82174C128.963 3.41149 129.469 3.88958 130.094 3.88958Z" fill="white"/>
<path d="M134.389 3.88958C135.014 3.88958 135.521 3.41149 135.521 2.82174C135.521 2.23199 135.014 1.75391 134.389 1.75391C133.765 1.75391 133.258 2.23199 133.258 2.82174C133.258 3.41149 133.765 3.88958 134.389 3.88958Z" fill="white"/>
<path d="M260.055 1.39648H255.11C255.013 1.39648 254.92 1.43291 254.851 1.49775C254.783 1.56259 254.744 1.65052 254.744 1.74222C254.744 1.83391 254.783 1.92185 254.851 1.98669C254.92 2.05153 255.013 2.08795 255.11 2.08795H260.055C260.104 2.08795 260.151 2.07901 260.196 2.06164C260.24 2.04426 260.28 2.01879 260.314 1.98669C260.348 1.95458 260.375 1.91647 260.394 1.87453C260.412 1.83258 260.422 1.78762 260.422 1.74222C260.422 1.69682 260.412 1.65186 260.394 1.60991C260.375 1.56797 260.348 1.52985 260.314 1.49775C260.28 1.46564 260.24 1.44018 260.196 1.4228C260.151 1.40543 260.104 1.39648 260.055 1.39648Z" fill="white"/>
<path d="M260.055 2.69214H255.11C255.013 2.69214 254.92 2.72857 254.851 2.7934C254.783 2.85824 254.744 2.94618 254.744 3.03787C254.744 3.12957 254.783 3.21751 254.851 3.28234C254.92 3.34718 255.013 3.38361 255.11 3.38361H260.055C260.104 3.38361 260.151 3.37467 260.196 3.35729C260.24 3.33992 260.28 3.31445 260.314 3.28234C260.348 3.25024 260.375 3.21213 260.394 3.17018C260.412 3.12823 260.422 3.08328 260.422 3.03787C260.422 2.99247 260.412 2.94751 260.394 2.90557C260.375 2.86362 260.348 2.82551 260.314 2.7934C260.28 2.7613 260.24 2.73583 260.196 2.71846C260.151 2.70108 260.104 2.69214 260.055 2.69214Z" fill="white"/>
<path d="M260.055 3.98926H255.11C255.013 3.98926 254.92 4.02568 254.851 4.09052C254.783 4.15536 254.744 4.2433 254.744 4.33499C254.744 4.42669 254.783 4.51462 254.851 4.57946C254.92 4.6443 255.013 4.68073 255.11 4.68073H260.055C260.104 4.68073 260.151 4.67178 260.196 4.65441C260.24 4.63703 260.28 4.61157 260.314 4.57946C260.348 4.54736 260.375 4.50925 260.394 4.4673C260.412 4.42535 260.422 4.38039 260.422 4.33499C260.422 4.28959 260.412 4.24463 260.394 4.20269C260.375 4.16074 260.348 4.12263 260.314 4.09052C260.28 4.05842 260.24 4.03295 260.196 4.01558C260.151 3.9982 260.104 3.98926 260.055 3.98926Z" fill="white"/>
<path d="M259.493 18.7957H222.625C222.368 18.7963 222.122 18.8929 221.94 19.0642C221.759 19.2355 221.657 19.4677 221.656 19.71V33.8285C221.657 34.0708 221.759 34.303 221.94 34.4743C222.122 34.6456 222.368 34.7422 222.625 34.7428H259.493C259.75 34.7426 259.996 34.6462 260.178 34.4748C260.359 34.3033 260.462 34.0709 260.462 33.8285V19.71C260.462 19.4676 260.359 19.2352 260.178 19.0637C259.996 18.8923 259.75 18.7959 259.493 18.7957Z" fill="#E6E6E6"/>
<path d="M255.982 39.3197H226.137C225.982 39.3173 225.829 39.3438 225.686 39.3979C225.543 39.4519 225.412 39.5323 225.302 39.6344C225.192 39.7365 225.105 39.8583 225.045 39.9926C224.985 40.127 224.954 40.2711 224.954 40.4168C224.954 40.5624 224.985 40.7066 225.045 40.841C225.105 40.9753 225.192 41.0971 225.302 41.1992C225.412 41.3013 225.543 41.3817 225.686 41.4357C225.829 41.4898 225.982 41.5163 226.137 41.5139H255.982C257.497 41.5345 257.482 39.2991 255.982 39.3197Z" fill="#E6E6E6"/>
<path d="M255.982 44.349H226.137C225.982 44.3466 225.829 44.3731 225.686 44.4272C225.543 44.4812 225.412 44.5616 225.302 44.6637C225.192 44.7658 225.105 44.8876 225.045 45.0219C224.985 45.1563 224.954 45.3005 224.954 45.4461C224.954 45.5918 224.985 45.7359 225.045 45.8703C225.105 46.0046 225.192 46.1264 225.302 46.2285C225.412 46.3306 225.543 46.411 225.686 46.465C225.829 46.5191 225.982 46.5456 226.137 46.5432H255.982C257.497 46.5638 257.482 44.3287 255.982 44.349Z" fill="#E6E6E6"/>
<path d="M255.982 49.3783H226.137C225.982 49.3759 225.829 49.4024 225.686 49.4565C225.543 49.5105 225.412 49.5909 225.302 49.693C225.192 49.7951 225.105 49.9169 225.045 50.0512C224.985 50.1856 224.954 50.3297 224.954 50.4754C224.954 50.621 224.985 50.7652 225.045 50.8996C225.105 51.0339 225.192 51.1556 225.302 51.2578C225.412 51.3599 225.543 51.4403 225.686 51.4943C225.829 51.5483 225.982 51.5749 226.137 51.5725H255.982C257.497 51.5931 257.482 49.3577 255.982 49.3783Z" fill="#E6E6E6"/>
<path d="M211.043 18.7957H174.176C173.919 18.7963 173.673 18.8929 173.491 19.0642C173.31 19.2355 173.207 19.4677 173.207 19.71V33.8285C173.207 34.0708 173.31 34.303 173.491 34.4743C173.673 34.6456 173.919 34.7422 174.176 34.7428H211.044C211.301 34.7426 211.547 34.6462 211.729 34.4748C211.91 34.3033 212.012 34.0709 212.013 33.8285V19.71C212.012 19.4675 211.91 19.2351 211.728 19.0636C211.547 18.8922 211.3 18.7958 211.043 18.7957Z" fill="#E6E6E6"/>
<path d="M207.533 39.3197H177.687C177.533 39.3173 177.38 39.3438 177.236 39.3979C177.093 39.4519 176.962 39.5323 176.852 39.6344C176.742 39.7365 176.655 39.8583 176.595 39.9926C176.536 40.127 176.505 40.2711 176.505 40.4168C176.505 40.5624 176.536 40.7066 176.595 40.841C176.655 40.9753 176.742 41.0971 176.852 41.1992C176.962 41.3013 177.093 41.3817 177.236 41.4357C177.38 41.4898 177.533 41.5163 177.687 41.5139H207.533C209.047 41.5345 209.032 39.2991 207.533 39.3197Z" fill="#E6E6E6"/>
<path d="M207.533 44.349H177.687C177.533 44.3466 177.38 44.3731 177.236 44.4272C177.093 44.4812 176.962 44.5616 176.852 44.6637C176.742 44.7658 176.655 44.8876 176.595 45.0219C176.536 45.1563 176.505 45.3005 176.505 45.4461C176.505 45.5918 176.536 45.7359 176.595 45.8703C176.655 46.0046 176.742 46.1264 176.852 46.2285C176.962 46.3306 177.093 46.411 177.236 46.465C177.38 46.5191 177.533 46.5456 177.687 46.5432H207.533C209.047 46.5638 209.032 44.3287 207.533 44.349Z" fill="#E6E6E6"/>
<path d="M207.533 49.3783H177.687C177.533 49.3759 177.38 49.4024 177.236 49.4565C177.093 49.5105 176.962 49.5909 176.852 49.693C176.742 49.7951 176.655 49.9169 176.595 50.0512C176.536 50.1856 176.505 50.3297 176.505 50.4754C176.505 50.621 176.536 50.7652 176.595 50.8996C176.655 51.0339 176.742 51.1556 176.852 51.2578C176.962 51.3599 177.093 51.4403 177.236 51.4943C177.38 51.5483 177.533 51.5749 177.687 51.5725H207.533C209.047 51.5931 209.032 49.3577 207.533 49.3783Z" fill="#E6E6E6"/>
<path d="M161.65 37.5122H104.675C103.577 37.5122 102.688 38.3519 102.688 39.3878V92.5295C102.688 93.5653 103.577 94.4051 104.675 94.4051H161.65C162.748 94.4051 163.638 93.5653 163.638 92.5295V39.3878C163.638 38.3519 162.748 37.5122 161.65 37.5122Z" fill="white"/>
<path d="M104.07 37.7527C103.747 37.753 103.438 37.8742 103.21 38.0895C102.982 38.3049 102.853 38.5969 102.853 38.9015V92.8941C102.853 93.1987 102.982 93.4907 103.21 93.7061C103.438 93.9214 103.747 94.0426 104.07 94.0429H162.258C162.581 94.0426 162.89 93.9214 163.119 93.7061C163.347 93.4907 163.475 93.1987 163.476 92.8941V38.9015C163.475 38.5969 163.347 38.3049 163.119 38.0895C162.89 37.8742 162.581 37.753 162.258 37.7527H104.07ZM104.07 37.5229H162.258C162.646 37.5229 163.017 37.6682 163.291 37.9267C163.565 38.1852 163.719 38.5359 163.719 38.9015V92.8941C163.719 93.2597 163.565 93.6103 163.291 93.8689C163.017 94.1274 162.646 94.2727 162.258 94.2727H104.07C103.683 94.2727 103.311 94.1274 103.037 93.8689C102.763 93.6103 102.609 93.2597 102.609 92.8941V38.9015C102.609 38.5359 102.763 38.1852 103.037 37.9267C103.311 37.6682 103.683 37.5229 104.07 37.5229Z" fill="#090814"/>
<path d="M156.66 45.0085H109.667C109.339 45.009 109.025 45.1321 108.793 45.3509C108.561 45.5697 108.43 45.8663 108.43 46.1758V64.168C108.43 64.4775 108.561 64.7741 108.793 64.9929C109.025 65.2117 109.339 65.3348 109.667 65.3352H156.66C156.988 65.3343 157.302 65.211 157.533 64.9922C157.764 64.7734 157.894 64.4771 157.895 64.168V46.1758C157.894 45.8667 157.764 45.5704 157.533 45.3516C157.302 45.1328 156.988 45.0095 156.66 45.0085Z" fill="#F59E0B"/>
<path d="M152.186 71.1684H114.141C113.748 71.1684 113.371 71.3158 113.093 71.5782C112.815 71.8406 112.659 72.1965 112.659 72.5676C112.659 72.9387 112.815 73.2945 113.093 73.5569C113.371 73.8193 113.748 73.9668 114.141 73.9668H152.186C154.116 73.9921 154.097 71.1431 152.186 71.1684Z" fill="#F59E0B"/>
<path d="M152.186 77.5785H114.141C113.748 77.5785 113.371 77.7259 113.093 77.9883C112.815 78.2507 112.659 78.6066 112.659 78.9777C112.659 79.3488 112.815 79.7047 113.093 79.9671C113.371 80.2295 113.748 80.3769 114.141 80.3769H152.186C154.116 80.4022 154.097 77.5532 152.186 77.5785Z" fill="#F59E0B"/>
<path d="M152.186 83.9911H114.141C113.748 83.9911 113.371 84.1384 113.094 84.4006C112.816 84.6628 112.66 85.0184 112.66 85.3892C112.66 85.76 112.816 86.1157 113.094 86.3778C113.371 86.64 113.748 86.7873 114.141 86.7873H152.186C154.116 86.8123 154.097 83.9658 152.186 83.9911Z" fill="#F59E0B"/>
<path d="M140.963 34.6888C139.579 34.6888 138.227 34.3016 137.076 33.5761C135.926 32.8507 135.029 31.8196 134.5 30.6132C133.97 29.4068 133.832 28.0794 134.101 26.7987C134.371 25.518 135.038 24.3416 136.016 23.4183C136.995 22.495 138.241 21.8662 139.598 21.6115C140.955 21.3567 142.362 21.4875 143.64 21.9872C144.919 22.4869 146.011 23.3331 146.78 24.4188C147.549 25.5045 147.959 26.7809 147.959 28.0867C147.959 29.8377 147.222 31.5169 145.91 32.7551C144.598 33.9932 142.819 34.6888 140.963 34.6888Z" fill="#F59E0B"/>
<path d="M143.724 27.4355H141.654V25.4833C141.654 25.3106 141.581 25.1449 141.451 25.0228C141.322 24.9006 141.146 24.832 140.963 24.832C140.78 24.832 140.605 24.9006 140.475 25.0228C140.346 25.1449 140.273 25.3106 140.273 25.4833V27.4371H138.203C138.02 27.4371 137.844 27.5057 137.715 27.6278C137.585 27.75 137.513 27.9156 137.513 28.0884C137.513 28.2611 137.585 28.4268 137.715 28.5489C137.844 28.671 138.02 28.7397 138.203 28.7397H140.273V30.6934C140.273 30.8661 140.346 31.0318 140.475 31.1539C140.605 31.2761 140.78 31.3447 140.963 31.3447C141.146 31.3447 141.322 31.2761 141.451 31.1539C141.581 31.0318 141.654 30.8661 141.654 30.6934V28.7397H143.724C143.907 28.7397 144.082 28.671 144.212 28.5489C144.341 28.4268 144.414 28.2611 144.414 28.0884C144.414 27.9156 144.341 27.75 144.212 27.6278C144.082 27.5057 143.907 27.4371 143.724 27.4371V27.4355Z" fill="white"/>
<path d="M10.6294 95.0815L0.311339 128.364C-0.00989416 129.4 -0.0834909 130.491 0.0958519 131.557C0.275195 132.623 0.703011 133.639 1.34846 134.53C1.9939 135.421 2.84089 136.167 3.82837 136.712C4.81585 137.257 5.91921 137.589 7.0589 137.683L18.3171 138.613L10.6294 95.0815Z" fill="#6C63FF"/>
<path opacity="0.1" d="M10.6292 95L0.311095 128.282C-0.0101383 129.319 -0.0837351 130.409 0.0956078 131.475C0.274951 132.542 0.702767 133.557 1.34821 134.449C1.99366 135.34 2.84065 136.085 3.82812 136.63C4.8156 137.175 5.91896 137.507 7.05866 137.601L18.3169 138.531L10.6292 95Z" fill="black"/>
<path d="M104.274 88.9419L90.4736 110.48L83.9758 102.711L96.6753 83.9481C96.2241 81.7656 96.7704 79.2313 98.3849 77.0435C101.209 73.2148 106.222 71.8997 109.579 74.105C112.937 76.3104 113.369 81.2029 110.544 85.0316C109.826 86.0428 108.902 86.909 107.826 87.5799C106.75 88.2507 105.543 88.7128 104.276 88.9391L104.274 88.9419Z" fill="#ED9DA0"/>
<path d="M18.2352 141.155L16.579 146.474L16.6353 151.867C16.6353 151.867 5.73253 164.24 9.7496 191L60.8234 190.396L54.7393 147.335L18.2352 141.155Z" fill="#2F2E41"/>
<path d="M23.9841 67.4454C23.9848 64.9191 24.7273 62.4425 26.1294 60.2904C27.5314 58.1383 29.538 56.395 31.9265 55.2541C34.3149 54.1132 36.9917 53.6192 39.6596 53.8271C42.3276 54.035 44.8822 54.9366 47.04 56.4319C49.1977 57.9271 50.8742 59.9574 51.8831 62.2973C52.8921 64.6373 53.1941 67.1954 52.7556 69.6875C52.3172 72.1797 51.1554 74.5084 49.3992 76.4151C47.6431 78.3218 45.3614 79.7319 42.8074 80.4889L40.648 82.1306L44.5236 94.9353L40.006 97.9522L25.7334 86.7274C25.7334 86.7274 28.817 83.0209 30.4703 78.8415C28.4751 77.5961 26.8382 75.9033 25.7062 73.9146C24.5742 71.9258 23.9824 69.7032 23.9838 67.4457L23.9841 67.4454Z" fill="#ED9DA0"/>
<path d="M93.8027 88.2588C88.6898 88.1853 79.2363 103.671 79.2363 103.671L71.4708 101.079L55.4992 95.7436L43.2599 90.9896L43.3135 91.3388C43.2648 91.2291 43.2142 91.12 43.1552 91.0071C41.8686 88.5064 38.1308 85.562 27.5202 86.1447L22.5246 89.8671L21.8452 90.3769C19.7019 90.2684 17.5582 90.5836 15.5515 91.3022C13.2788 92.1644 11.0061 93.7718 9.93082 96.7796C9.37366 98.3304 9.37366 101.537 9.70822 105.611C10.917 120.361 16.5495 151.719 16.5495 151.719L52.1152 147.275L54.7387 147.333C54.7387 147.333 55.0507 143.953 55.329 139.526C55.5015 136.93 55.6576 133.981 55.7467 131.142C55.808 129.06 55.8245 127.042 55.7858 125.265C55.7801 125.154 55.7801 125.044 55.7745 124.934C55.6685 121.691 55.3233 119.341 54.582 119.083C54.582 119.083 56.8825 119.025 60.2023 118.91C68.2239 118.626 82.2053 117.991 84.1994 116.965C87.018 115.519 101.796 96.1166 101.796 96.1166C101.796 96.1166 98.9218 88.3369 93.8027 88.2588Z" fill="#6C63FF"/>
<path d="M31.8857 47.8267C32.6604 47.828 33.4331 47.9005 34.1929 48.043C35.566 47.414 37.0722 47.0866 38.5985 47.0852H38.9983C46.7055 47.0852 52.9532 53.6666 52.9532 61.7851H50.3695L49.9521 58.7895L49.3406 61.7851H47.1891C47.858 64.189 48.1935 66.6646 48.1872 69.1499V84.1125H44.2831L42.0226 78.5688L42.5881 84.1125H13.1254V72.3631C13.1254 58.8126 21.5245 47.8267 31.8857 47.8267Z" fill="#2F2E41"/>
</g>
<defs>
<clipPath id="clip0_183_61">
<rect width="265" height="191" fill="white"/>
</clipPath>
</defs>
</svg>
