<svg width="116" height="123" viewBox="0 0 116 123" fill="none" xmlns="http://www.w3.org/2000/svg">
<g clip-path="url(#clip0_197_278)">
<path d="M2.73745 0C2.01168 0.000901881 1.31587 0.320258 0.802677 0.888C0.289482 1.45574 0.000815229 2.22551 0 3.02842V104.23C0.000815229 105.033 0.289482 105.802 0.802677 106.37C1.31587 106.938 2.01168 107.257 2.73745 107.258H72.4759C73.2017 107.257 73.8975 106.938 74.4107 106.37C74.9238 105.802 75.2125 105.033 75.2133 104.23V3.02842C75.2125 2.22551 74.9238 1.45575 74.4107 0.888003C73.8975 0.320262 73.2017 0.000906009 72.4759 0H2.73745Z" fill="#E6E6E6"/>
<path d="M70.3819 40.7086H4.83166C4.05907 40.7076 3.31838 40.3677 2.77207 39.7633C2.22577 39.1589 1.91848 38.3395 1.9176 37.4848V16.8185C1.91848 15.9638 2.22577 15.1444 2.77207 14.54C3.31838 13.9357 4.05907 13.5957 4.83166 13.5947H70.3819C71.1545 13.5957 71.8952 13.9356 72.4415 14.54C72.9878 15.1444 73.2951 15.9638 73.2959 16.8185V37.4848C73.2951 38.3395 72.9878 39.159 72.4415 39.7633C71.8952 40.3677 71.1545 40.7077 70.3819 40.7086Z" fill="white"/>
<path d="M70.3819 72.2609H4.83166C4.05907 72.26 3.31838 71.92 2.77208 71.3156C2.22578 70.7113 1.91848 69.8919 1.9176 69.0372V48.3708C1.91848 47.5161 2.22577 46.6966 2.77207 46.0923C3.31838 45.4879 4.05907 45.1479 4.83166 45.147H70.3819C71.1545 45.1479 71.8952 45.4879 72.4415 46.0922C72.9878 46.6966 73.2951 47.5161 73.2959 48.3708V69.0372C73.2951 69.8919 72.9878 70.7113 72.4415 71.3157C71.8952 71.92 71.1545 72.26 70.3819 72.2609Z" fill="white"/>
<path d="M4.83157 76.8945C4.1058 76.8954 3.40999 77.2148 2.89679 77.7825C2.3836 78.3503 2.09493 79.12 2.09412 79.9229V100.589C2.09493 101.392 2.3836 102.162 2.89679 102.73C3.40999 103.297 4.1058 103.617 4.83157 103.618H70.3818C71.1075 103.617 71.8033 103.297 72.3165 102.73C72.8297 102.162 73.1184 101.392 73.1192 100.589V79.9229C73.1184 79.12 72.8297 78.3503 72.3165 77.7825C71.8033 77.2148 71.1075 76.8954 70.3818 76.8945H4.83157Z" fill="white"/>
<path d="M71.3128 6.30105C72.4143 6.30105 73.3072 5.3132 73.3072 4.09462C73.3072 2.87604 72.4143 1.88818 71.3128 1.88818C70.2113 1.88818 69.3184 2.87604 69.3184 4.09462C69.3184 5.3132 70.2113 6.30105 71.3128 6.30105Z" fill="white"/>
<path d="M8.53765 60.9104C9.63915 60.9104 10.5321 59.9226 10.5321 58.704C10.5321 57.4854 9.63915 56.4976 8.53765 56.4976C7.43616 56.4976 6.54321 57.4854 6.54321 58.704C6.54321 59.9226 7.43616 60.9104 8.53765 60.9104Z" fill="#E6E6E6"/>
<path d="M31.4738 60.5664H15.9171C15.4705 60.5664 15.0422 60.3702 14.7265 60.0208C14.4107 59.6715 14.2333 59.1977 14.2333 58.7036C14.2333 58.2096 14.4107 57.7358 14.7265 57.3864C15.0422 57.0371 15.4705 56.8408 15.9171 56.8408H31.4738C31.9203 56.8408 32.3486 57.0371 32.6644 57.3864C32.9802 57.7358 33.1576 58.2096 33.1576 58.7036C33.1576 59.1977 32.9802 59.6715 32.6644 60.0208C32.3486 60.3702 31.9203 60.5664 31.4738 60.5664Z" fill="#E6E6E6"/>
<path d="M43.9888 61.0208C45.0903 61.0208 45.9833 60.0329 45.9833 58.8143C45.9833 57.5958 45.0903 56.6079 43.9888 56.6079C42.8873 56.6079 41.9944 57.5958 41.9944 58.8143C41.9944 60.0329 42.8873 61.0208 43.9888 61.0208Z" fill="#E6E6E6"/>
<path d="M66.925 60.6769H51.3683C50.9217 60.6769 50.4934 60.4806 50.1776 60.1313C49.8619 59.7819 49.6844 59.3081 49.6844 58.814C49.6844 58.32 49.8619 57.8461 50.1776 57.4968C50.4934 57.1474 50.9217 56.9512 51.3683 56.9512H66.925C67.3716 56.9512 67.7999 57.1474 68.1157 57.4968C68.4314 57.8461 68.6088 58.32 68.6088 58.814C68.6088 59.3081 68.4314 59.7819 68.1157 60.1313C67.7999 60.4806 67.3716 60.6769 66.925 60.6769Z" fill="#E6E6E6"/>
<path d="M72.3513 3.25783L72.0692 2.9458L71.3128 3.78282L70.5562 2.9458L70.2742 3.25783L71.0308 4.09484L70.2742 4.93166L70.5562 5.24368L71.3128 4.40667L72.0692 5.24368L72.3513 4.93166L71.5949 4.09484L72.3513 3.25783Z" fill="#E6E6E6"/>
<path d="M8.53766 29.3582C9.63916 29.3582 10.5321 28.3703 10.5321 27.1517C10.5321 25.9332 9.63916 24.9453 8.53766 24.9453C7.43616 24.9453 6.54321 25.9332 6.54321 27.1517C6.54321 28.3703 7.43616 29.3582 8.53766 29.3582Z" fill="#E6E6E6"/>
<path d="M67.0746 28.7941H19.6068C19.1605 28.7936 18.7327 28.5971 18.4173 28.2478C18.1018 27.8985 17.9247 27.4249 17.9247 26.9312C17.9247 26.4375 18.1018 25.9639 18.4173 25.6147C18.7327 25.2654 19.1605 25.0689 19.6068 25.0684H67.0746C67.5209 25.0689 67.9487 25.2654 68.2642 25.6147C68.5796 25.9639 68.7567 26.4375 68.7567 26.9312C68.7567 27.4249 68.5796 27.8985 68.2642 28.2478C67.9487 28.5971 67.5209 28.7936 67.0746 28.7941Z" fill="#E6E6E6"/>
<path d="M58.7976 28.7941H16.5154C16.0688 28.7941 15.6405 28.5978 15.3247 28.2484C15.009 27.8991 14.8315 27.4253 14.8315 26.9312C14.8315 26.4372 15.009 25.9633 15.3247 25.614C15.6405 25.2646 16.0688 25.0684 16.5154 25.0684H58.7976C59.2439 25.0689 59.6718 25.2654 59.9872 25.6147C60.3026 25.9639 60.4798 26.4375 60.4798 26.9312C60.4798 27.4249 60.3026 27.8985 59.9872 28.2478C59.6718 28.5971 59.2439 28.7936 58.7976 28.7941Z" fill="#6C63FF"/>
<path d="M8.53765 92.4622C9.63915 92.4622 10.5321 91.4743 10.5321 90.2557C10.5321 89.0372 9.63915 88.0493 8.53765 88.0493C7.43616 88.0493 6.54321 89.0372 6.54321 90.2557C6.54321 91.4743 7.43616 92.4622 8.53765 92.4622Z" fill="#E6E6E6"/>
<path d="M67.0746 91.898H19.6068C19.1602 91.898 18.7319 91.7017 18.4162 91.3524C18.1004 91.003 17.923 90.5292 17.923 90.0352C17.923 89.5411 18.1004 89.0673 18.4162 88.718C18.7319 88.3686 19.1602 88.1724 19.6068 88.1724H67.0746C67.5212 88.1724 67.9494 88.3686 68.2652 88.718C68.581 89.0673 68.7584 89.5411 68.7584 90.0352C68.7584 90.5292 68.581 91.003 68.2652 91.3524C67.9494 91.7017 67.5212 91.898 67.0746 91.898Z" fill="#E6E6E6"/>
<path d="M41.7951 91.898H16.5155C16.0689 91.898 15.6406 91.7017 15.3248 91.3524C15.0091 91.003 14.8317 90.5292 14.8317 90.0352C14.8317 89.5411 15.0091 89.0673 15.3248 88.718C15.6406 88.3686 16.0689 88.1724 16.5155 88.1724H41.7951C42.2416 88.1724 42.6699 88.3686 42.9857 88.718C43.3015 89.0673 43.4789 89.5411 43.4789 90.0352C43.4789 90.5292 43.3015 91.003 42.9857 91.3524C42.6699 91.7017 42.2416 91.898 41.7951 91.898Z" fill="#6C63FF"/>
<path d="M18.6595 60.5664H15.9171C15.4705 60.5664 15.0422 60.3702 14.7265 60.0208C14.4107 59.6715 14.2333 59.1977 14.2333 58.7036C14.2333 58.2096 14.4107 57.7358 14.7265 57.3864C15.0422 57.0371 15.4705 56.8408 15.9171 56.8408H18.6595C19.106 56.8408 19.5343 57.0371 19.8501 57.3864C20.1659 57.7358 20.3433 58.2096 20.3433 58.7036C20.3433 59.1977 20.1659 59.6715 19.8501 60.0208C19.5343 60.3702 19.106 60.5664 18.6595 60.5664Z" fill="#6C63FF"/>
<path d="M59.9444 60.6769H51.3683C50.9217 60.6769 50.4934 60.4806 50.1776 60.1313C49.8619 59.7819 49.6844 59.3081 49.6844 58.814C49.6844 58.32 49.8619 57.8461 50.1776 57.4968C50.4934 57.1474 50.9217 56.9512 51.3683 56.9512H59.9444C60.3907 56.9517 60.8186 57.1482 61.134 57.4975C61.4494 57.8468 61.6266 58.3203 61.6266 58.814C61.6266 59.3078 61.4494 59.7813 61.134 60.1306C60.8186 60.4799 60.3907 60.6764 59.9444 60.6769Z" fill="#6C63FF"/>
<path d="M102.041 83.0015C102.3 82.9728 102.549 82.8817 102.772 82.7348C102.995 82.5878 103.187 82.3886 103.332 82.151C103.478 81.9134 103.575 81.6434 103.617 81.3598C103.658 81.0763 103.643 80.7861 103.572 80.5098L108.742 76.5057L105.693 75.1699L101.251 79.1771C100.839 79.3397 100.496 79.6638 100.285 80.0878C100.075 80.5118 100.013 81.0064 100.11 81.4778C100.208 81.9492 100.458 82.3647 100.814 82.6456C101.17 82.9264 101.607 83.0531 102.041 83.0015Z" fill="#A0616A"/>
<path d="M104.451 80.0771C104.34 80.0769 104.23 80.0509 104.128 80.0008C104.013 79.9453 103.912 79.8602 103.833 79.7525C103.754 79.6448 103.699 79.5177 103.673 79.3818L103.326 77.5986C103.296 77.4457 103.304 77.2868 103.348 77.1383C103.393 76.9898 103.472 76.8569 103.578 76.7535L106.644 73.7669L103.617 66.7516C103.407 66.2638 103.371 65.706 103.516 65.19C103.662 64.674 103.978 64.2378 104.402 63.969C104.826 63.7001 105.326 63.6184 105.802 63.7402C106.278 63.862 106.695 64.1783 106.969 64.6257L110.845 70.9505C111.133 71.4162 111.332 71.9423 111.429 72.4963C111.526 73.0503 111.519 73.6205 111.41 74.1716C111.288 74.754 111.058 75.3021 110.735 75.781C110.411 76.2599 110.001 76.6591 109.531 76.9533L104.849 79.9575C104.728 80.0356 104.591 80.0768 104.451 80.0771Z" fill="#CCCCCC"/>
<path d="M87.2733 76.2644C87.4893 76.4239 87.7342 76.5291 87.9908 76.5726C88.2475 76.616 88.5096 76.5967 88.7588 76.5159C89.0079 76.4352 89.238 76.295 89.4329 76.1052C89.6278 75.9154 89.7827 75.6806 89.8867 75.4174L96.1786 75.9625L94.5923 72.7869L88.8607 72.7562C88.4494 72.5922 87.9981 72.6008 87.5922 72.7804C87.1864 72.9599 86.8541 73.2979 86.6585 73.7303C86.4628 74.1628 86.4173 74.6596 86.5307 75.1267C86.644 75.5937 86.9082 75.9985 87.2733 76.2644Z" fill="#A0616A"/>
<path d="M102.32 59.6366C104.715 59.6366 106.657 57.4881 106.657 54.8378C106.657 52.1875 104.715 50.0391 102.32 50.0391C99.9241 50.0391 97.9821 52.1875 97.9821 54.8378C97.9821 57.4881 99.9241 59.6366 102.32 59.6366Z" fill="#A0616A"/>
<path d="M89.5479 120.486L87.4728 119.803L88.8668 110.622L91.9297 111.63L89.5479 120.486Z" fill="#A0616A"/>
<path d="M89.4788 122.885L82.7872 120.683L82.8124 120.589C82.9142 120.211 83.0823 119.858 83.3072 119.552C83.5321 119.245 83.8094 118.99 84.1232 118.803C84.437 118.615 84.7812 118.497 85.1361 118.456C85.4911 118.415 85.8498 118.452 86.1918 118.565L86.192 118.565L90.279 119.91L89.4788 122.885Z" fill="#2F2E41"/>
<path d="M112.284 120.368L110.119 120.368L109.089 111.129L111.225 111.129L112.284 120.368Z" fill="#A0616A"/>
<path d="M112.837 122.69L105.855 122.69V122.592C105.855 122.197 105.925 121.806 106.062 121.442C106.198 121.077 106.399 120.746 106.651 120.466C106.903 120.187 107.203 119.966 107.533 119.815C107.862 119.664 108.216 119.586 108.573 119.586L112.837 119.586L112.837 122.69Z" fill="#2F2E41"/>
<path d="M90.3464 117.769H88.1724C88.0559 117.769 87.9408 117.741 87.8352 117.686C87.7297 117.632 87.6364 117.552 87.5618 117.453C87.4872 117.354 87.4332 117.238 87.4037 117.113C87.3741 116.988 87.3697 116.858 87.3908 116.731L90.4357 98.3915C90.4328 85.03 95.1847 77.2908 95.2326 77.2141L95.2906 77.1216L104.172 77.9233L113.024 116.52C113.053 116.646 113.056 116.778 113.034 116.906C113.011 117.034 112.963 117.154 112.893 117.259C112.823 117.364 112.732 117.45 112.629 117.511C112.525 117.573 112.41 117.608 112.292 117.614L109.85 117.745C109.684 117.755 109.521 117.707 109.381 117.608C109.242 117.509 109.134 117.364 109.073 117.194L99.7148 91.3119C99.6963 91.2554 99.6618 91.2069 99.6164 91.1737C99.571 91.1406 99.5171 91.1245 99.4628 91.1278C99.4087 91.1284 99.356 91.1476 99.3123 91.1829C99.2685 91.2182 99.2358 91.2677 99.2187 91.3245L91.0971 117.179C91.0428 117.351 90.9414 117.501 90.8069 117.607C90.6724 117.712 90.5114 117.769 90.3464 117.769Z" fill="#2F2E41"/>
<path d="M104.358 78.6985L104.29 78.6929L94.8342 77.9034L96.4928 66.2334C96.6748 64.9307 97.2327 63.7281 98.0833 62.805C98.9338 61.8819 100.031 61.2878 101.212 61.1115C101.285 61.1002 101.358 61.0892 101.432 61.0785C102.359 60.9434 103.303 61.0745 104.171 61.4591C105.04 61.8437 105.805 62.4688 106.392 63.2746C106.993 64.0849 107.396 65.0527 107.561 66.085C107.727 67.1173 107.65 68.1793 107.337 69.1691L104.358 78.6985Z" fill="#CCCCCC"/>
<path d="M99.5477 75.6509C99.1639 75.9918 98.7231 76.2456 98.2504 76.3977C97.7778 76.5497 97.2826 76.5971 96.7934 76.5369L91.3208 75.8853C91.1957 75.8704 91.0756 75.8228 90.9703 75.7465C90.8651 75.6702 90.7777 75.5674 90.7154 75.4465C90.6531 75.3255 90.6176 75.19 90.6119 75.0509C90.6062 74.9119 90.6304 74.7733 90.6825 74.6466L91.4123 72.8743C91.4717 72.7298 91.5654 72.6058 91.6834 72.5155C91.8014 72.4252 91.9392 72.372 92.0824 72.3614L96.0712 72.0656L97.3807 64.4298C97.4652 63.9396 97.7015 63.4974 98.0489 63.1792C98.3963 62.8609 98.8331 62.6865 99.2841 62.6861C99.5566 62.6847 99.8263 62.7476 100.075 62.8706C100.324 62.9936 100.546 63.1738 100.727 63.3993C101.07 63.8334 101.246 64.3984 101.218 64.9741L100.964 72.5446C100.947 73.1171 100.823 73.6794 100.599 74.1958C100.375 74.7123 100.057 75.1715 99.6636 75.5444C99.6255 75.5808 99.5869 75.6163 99.5477 75.6509Z" fill="#CCCCCC"/>
<path d="M99.0213 53.6396C98.4812 53.8713 97.912 54.0099 97.3339 54.0503C96.7523 54.0584 96.1342 53.8355 95.8159 53.3455C95.6939 53.1315 95.615 52.8908 95.5849 52.6399C95.5547 52.3891 95.574 52.134 95.6413 51.8921C95.7618 51.4017 95.9786 50.9468 96.2763 50.5599C96.5741 50.1729 96.9453 49.8635 97.3636 49.6536C97.8032 49.433 98.2778 49.3106 98.7602 49.2934C99.2426 49.2763 99.7234 49.3646 100.175 49.5535C100.501 48.4559 101.73 47.8585 102.868 47.8247C105.192 47.7557 107.27 49.5089 108.28 51.617C109.29 53.7251 109.438 56.1348 109.5 58.4743C109.516 59.0449 109.522 59.6398 109.278 60.1549C108.914 60.9219 108.087 61.335 107.308 61.6625C105.265 62.5201 103.157 63.1756 101.009 63.6214C102.04 62.8921 102.367 61.3225 101.714 60.2375C101.395 59.7067 100.87 59.2648 100.785 58.65C100.683 57.9129 101.251 57.2682 101.462 56.5547C101.568 56.1684 101.573 55.7567 101.476 55.3675C101.378 54.9783 101.183 54.6277 100.913 54.3567C100.618 54.0737 100.266 53.8739 99.8868 53.7744C99.5073 53.6748 99.1117 53.6785 98.7337 53.785" fill="#2F2E41"/>
<path d="M115.823 123H79.2652C79.2184 123 79.1735 122.98 79.1403 122.943C79.1072 122.906 79.0886 122.857 79.0886 122.805C79.0886 122.753 79.1072 122.703 79.1403 122.667C79.1735 122.63 79.2184 122.609 79.2652 122.609H115.823C115.87 122.609 115.915 122.63 115.948 122.667C115.981 122.703 116 122.753 116 122.805C116 122.857 115.981 122.906 115.948 122.943C115.915 122.98 115.87 123 115.823 123Z" fill="#CCCCCC"/>
</g>
<defs>
<clipPath id="clip0_197_278">
<rect width="116" height="123" fill="white"/>
</clipPath>
</defs>
</svg>
