<svg width="200" height="154" viewBox="0 0 200 154" fill="none" xmlns="http://www.w3.org/2000/svg">
<path d="M10.4362 57.1682C7.66833 57.1682 5.01384 58.2192 3.05668 60.0899C1.09952 61.9607 0 64.4979 0 67.1436C0 69.7892 1.09952 72.3265 3.05668 74.1972C5.01384 76.068 7.66833 77.1189 10.4362 77.1189H88.211C90.9788 77.1189 93.6333 76.068 95.5905 74.1972C97.5476 72.3265 98.6472 69.7892 98.6472 67.1436C98.6472 64.4979 97.5476 61.9607 95.5905 60.0899C93.6333 58.2192 90.9788 57.1682 88.211 57.1682H10.4362Z" fill="#E5E5E5"/>
<path d="M10.4362 59.187C8.22849 59.187 6.11122 60.0253 4.55015 61.5174C2.98907 63.0096 2.11206 65.0334 2.11206 67.1436C2.11206 69.2538 2.98907 71.2776 4.55015 72.7697C6.11122 74.2619 8.22849 75.1001 10.4362 75.1001H88.2105C90.4182 75.1001 92.5355 74.2619 94.0965 72.7697C95.6576 71.2776 96.5346 69.2538 96.5346 67.1436C96.5346 65.0334 95.6576 63.0096 94.0965 61.5174C92.5355 60.0253 90.4182 59.187 88.2105 59.187H10.4362Z" fill="white"/>
<path d="M27.6155 71.9011H12.1413C12.0915 71.9024 12.042 71.8941 11.9957 71.8767C11.9493 71.8594 11.9071 71.8333 11.8714 71.8001C11.8358 71.7669 11.8075 71.7272 11.7881 71.6834C11.7688 71.6395 11.7588 71.5924 11.7588 71.5449C11.7588 71.4973 11.7688 71.4502 11.7881 71.4064C11.8075 71.3625 11.8358 71.3228 11.8714 71.2896C11.9071 71.2564 11.9493 71.2304 11.9957 71.213C12.042 71.1957 12.0915 71.1874 12.1413 71.1886H27.6155C27.7127 71.191 27.805 71.2296 27.8729 71.2961C27.9407 71.3627 27.9787 71.4519 27.9787 71.5449C27.9787 71.6378 27.9407 71.727 27.8729 71.7936C27.805 71.8601 27.7127 71.8987 27.6155 71.9011Z" fill="#6C63FF"/>
<path d="M47.2455 72.0197H31.7713C31.6724 72.0197 31.5776 71.9821 31.5077 71.9153C31.4378 71.8485 31.3986 71.7579 31.3986 71.6634C31.3986 71.5689 31.4378 71.4783 31.5077 71.4115C31.5776 71.3447 31.6724 71.3071 31.7713 71.3071H47.2455C47.3443 71.3071 47.4391 71.3447 47.509 71.4115C47.5789 71.4783 47.6182 71.5689 47.6182 71.6634C47.6182 71.7579 47.5789 71.8485 47.509 71.9153C47.4391 71.9821 47.3443 72.0197 47.2455 72.0197Z" fill="#6C63FF"/>
<path d="M66.8756 72.1388H51.4014C51.3042 72.1364 51.2119 72.0978 51.144 72.0313C51.0762 71.9647 51.0382 71.8755 51.0382 71.7825C51.0382 71.6896 51.0762 71.6004 51.144 71.5338C51.2119 71.4673 51.3042 71.4287 51.4014 71.4263H66.8756C66.9745 71.4263 67.0693 71.4638 67.1392 71.5306C67.2091 71.5974 67.2483 71.6881 67.2483 71.7825C67.2483 71.877 67.2091 71.9676 67.1392 72.0345C67.0693 72.1013 66.9745 72.1388 66.8756 72.1388Z" fill="#6C63FF"/>
<path d="M86.5054 72.2577H71.0312C70.9323 72.2577 70.8375 72.2202 70.7676 72.1534C70.6977 72.0865 70.6584 71.9959 70.6584 71.9014C70.6584 71.8069 70.6977 71.7163 70.7676 71.6495C70.8375 71.5827 70.9323 71.5452 71.0312 71.5452H86.5054C86.6025 71.5476 86.6949 71.5862 86.7628 71.6527C86.8306 71.7193 86.8686 71.8085 86.8686 71.9014C86.8686 71.9944 86.8306 72.0836 86.7628 72.1502C86.6949 72.2167 86.6025 72.2553 86.5054 72.2577Z" fill="#6C63FF"/>
<path d="M19.8446 68.6223C21.4331 68.6223 22.7208 67.3915 22.7208 65.8732C22.7208 64.3549 21.4331 63.124 19.8446 63.124C18.2562 63.124 16.9685 64.3549 16.9685 65.8732C16.9685 67.3915 18.2562 68.6223 19.8446 68.6223Z" fill="#6C63FF"/>
<path d="M39.5933 68.6223C41.1817 68.6223 42.4694 67.3915 42.4694 65.8732C42.4694 64.3549 41.1817 63.124 39.5933 63.124C38.0048 63.124 36.7172 64.3549 36.7172 65.8732C36.7172 67.3915 38.0048 68.6223 39.5933 68.6223Z" fill="#6C63FF"/>
<path d="M59.3418 68.6223C60.9303 68.6223 62.2179 67.3915 62.2179 65.8732C62.2179 64.3549 60.9303 63.124 59.3418 63.124C57.7534 63.124 56.4657 64.3549 56.4657 65.8732C56.4657 67.3915 57.7534 68.6223 59.3418 68.6223Z" fill="#6C63FF"/>
<path d="M79.0902 68.6223C80.6787 68.6223 81.9664 67.3915 81.9664 65.8732C81.9664 64.3549 80.6787 63.124 79.0902 63.124C77.5018 63.124 76.2141 64.3549 76.2141 65.8732C76.2141 67.3915 77.5018 68.6223 79.0902 68.6223Z" fill="#6C63FF"/>
<path d="M89.6499 143.832C89.357 143.832 89.0662 143.783 88.791 143.687L70.1353 137.206C69.6181 137.026 69.1766 136.689 68.8785 136.247C68.5805 135.805 68.4422 135.282 68.4849 134.757C68.5276 134.233 68.7489 133.736 69.1149 133.343C69.4809 132.95 69.9716 132.683 70.5117 132.582L122.035 122.941C122.452 122.863 122.883 122.887 123.288 123.01L137.683 127.42C138.203 127.579 138.655 127.895 138.97 128.321C139.285 128.746 139.448 129.258 139.432 129.78C139.417 130.301 139.225 130.804 138.885 131.212C138.545 131.62 138.075 131.911 137.547 132.042L90.2827 143.755C90.0761 143.806 89.8634 143.832 89.6499 143.832Z" fill="white"/>
<path d="M127.383 121.162L154.441 124.271L149.508 133.364L125.652 130.054C123.687 131.386 120.958 131.979 118.119 131.474C113.153 130.59 109.747 126.691 110.512 122.762C111.277 118.832 115.923 116.365 120.889 117.249C123.727 117.753 126.051 119.245 127.383 121.162Z" fill="#ED9DA0"/>
<path d="M164.953 48.1855C163.914 44.5129 161.83 41.1875 158.933 38.5786C156.036 35.9696 152.439 34.1791 148.542 33.406C144.645 32.6329 140.599 32.9074 136.855 34.1989C133.111 35.4905 129.815 37.7486 127.333 40.7226C124.85 43.6966 123.278 47.27 122.792 51.0461C122.306 54.8222 122.924 58.6533 124.578 62.1139C126.232 65.5744 128.857 68.5292 132.162 70.6499C135.466 72.7707 139.321 73.9745 143.298 74.1278L154.496 98.4775L170.369 76.8647C170.369 76.8647 164.419 72.6196 160.327 67.1567C162.679 64.6065 164.333 61.5387 165.14 58.228C165.947 54.9172 165.883 51.4668 164.953 48.1855Z" fill="#ED9DA0"/>
<path d="M186.736 90.692C185.315 87.3443 182.888 84.4741 179.762 82.4439C176.635 80.4137 172.95 79.3146 169.17 79.2853C159.42 79.1955 147.009 81.6327 146.497 94.5131C145.65 115.84 146.497 107.256 146.497 107.256C146.497 107.256 139.766 123.276 146.497 131.003C153.228 138.73 159.097 153.961 159.097 153.961H200C200 153.961 192.939 136.124 194.152 123.954C194.976 115.693 191.05 100.891 186.736 90.6929L186.736 90.692Z" fill="#D6D6E3"/>
<path d="M198.437 87.5418C197.317 89.4728 194.081 89.3634 192.484 87.7675C190.887 86.1716 190.62 83.7385 190.871 81.5435C191.122 79.3486 191.798 77.1899 191.752 74.9826C191.663 70.7699 197.411 77.6543 194.458 74.5258C191.506 71.3974 188.13 68.5236 186.112 64.7774L185.868 64.5385C186.73 61.8174 184.64 59.0377 182.286 57.2994C179.933 55.5612 177.112 54.2335 175.506 51.8403C174.139 49.8049 173.863 47.3018 173.265 44.9507C170.947 35.8448 162.934 28.2915 153.377 26.2024C143.819 24.1133 133.168 27.5878 126.94 34.8255L127.09 34.5255C125.066 34.9457 123.202 35.8909 121.703 37.2574C120.204 38.6239 119.128 40.3588 118.593 42.2715C118.301 43.3796 118.204 44.5711 118.593 45.652C118.983 46.7329 119.93 47.6766 121.111 47.8555C122.377 48.0466 123.645 47.3353 124.425 46.3624C125.206 45.3895 125.595 44.1887 125.969 43.017C126.707 45.4854 128.119 47.7219 130.058 49.4973C131.998 51.2728 134.397 52.5234 137.009 53.1211C136.918 53.7954 137.018 54.4809 137.301 55.105C137.583 55.7291 138.036 56.2688 138.613 56.667C139.19 57.0652 139.868 57.3072 140.577 57.3673C141.285 57.4274 141.998 57.3036 142.639 57.0087L142.939 56.7354L147.362 56.9265C146.173 58.4748 145.326 60.2378 144.873 62.1085C144.419 63.9792 144.368 65.9185 144.722 67.8087C145.077 69.6989 145.83 71.5004 146.935 73.1039C148.041 74.7074 149.476 76.0793 151.153 77.1364C153.824 78.8195 156.978 79.6288 160.078 80.385C163.177 81.1413 164.093 86.4458 168.169 91.0529C167.954 96.2879 172.018 101.396 177.355 102.593L175.89 107.293C178.858 106.284 182.108 107.203 185.241 107.508C188.375 107.813 192.175 107.086 193.379 104.304C194.66 101.346 192.215 98.2091 189.94 95.8589C194.571 96.3003 199.009 91.9553 198.439 87.5418H198.437Z" fill="#211D4B"/>
<path d="M117.934 135.706L144.283 142.359L138.082 150.713L114.934 144.282C112.796 145.342 110.006 145.568 107.268 144.693C102.478 143.163 99.6687 138.849 100.994 135.06C102.32 131.27 107.278 129.44 112.069 130.971C114.807 131.846 116.892 133.631 117.935 135.706L117.934 135.706Z" fill="#ED9DA0"/>
<path d="M170.369 107.256C170.369 107.256 169.219 155.572 152.735 153.961C136.251 152.349 130.795 150.321 130.795 150.321C130.795 150.321 127.461 138.152 133.219 137.862C138.978 137.571 146.496 136.216 146.496 136.216V101.175" fill="#D6D6E3"/>
<path d="M122.504 21.0722C121.429 21.5022 120.304 21.0311 119.835 19.9533C119.357 18.8593 119.803 17.7486 120.896 17.3124C121.989 16.8762 123.092 17.3478 123.577 18.459C124.056 19.5547 123.613 20.6289 122.504 21.0722ZM120.443 15.1588L119.587 15.5001C119.374 15.5845 119.135 15.589 118.918 15.5129C118.701 15.4369 118.521 15.2857 118.415 15.0893L118.373 15.0102C117.453 13.4237 117.349 11.4955 118.062 9.28216C118.723 7.29669 118.998 5.90027 118.445 4.63522C117.806 3.17264 116.442 2.71449 114.702 3.37806C114.027 3.64751 113.812 3.64321 113.281 4.14674C113.166 4.25758 113.028 4.34505 112.877 4.40394C112.725 4.46283 112.562 4.49194 112.399 4.48951C112.241 4.48772 112.084 4.4555 111.939 4.39476C111.795 4.33402 111.664 4.24602 111.555 4.13599C111.346 3.92393 111.229 3.64393 111.228 3.35251C111.226 3.06108 111.34 2.77997 111.547 2.56591C112.44 1.67283 113.516 0.966282 114.709 0.490866C118.447 -1.0011 120.329 1.20174 121.19 3.17288C122.033 5.10102 121.559 6.89014 120.797 9.20692C120.159 11.1322 120.198 12.5587 120.922 13.9771C120.975 14.0843 121.004 14.2006 121.008 14.3189C121.012 14.4371 120.991 14.555 120.946 14.6653C120.902 14.7757 120.834 14.8762 120.748 14.961C120.661 15.0458 120.558 15.113 120.444 15.1585L120.443 15.1588Z" fill="#6C63FF"/>
</svg>
