<svg width="119" height="130" viewBox="0 0 119 130" fill="none" xmlns="http://www.w3.org/2000/svg">
<g clip-path="url(#clip0_198_310)">
<path d="M71.4923 128.705C71.645 128.905 71.781 129.122 71.8985 129.352H68.918C68.5063 129.13 68.0877 128.914 67.6625 128.705C67.5567 128.653 67.451 128.601 67.3435 128.549C66.9911 128.379 66.5887 128.148 66.6275 127.833C66.6608 127.567 67.0039 127.388 67.336 127.297C68.7529 126.909 70.4147 127.483 71.2624 128.426C71.3441 128.517 71.4201 128.61 71.4923 128.705V128.705Z" fill="#E6E6E6"/>
<path d="M73.2915 129.262C73.2748 129.283 73.2599 129.303 73.2451 129.324C73.1875 129.404 73.1338 129.486 73.0856 129.568C73.0216 129.675 72.9658 129.789 72.9188 129.907C72.8893 129.792 72.8533 129.678 72.8112 129.568C72.778 129.475 72.7402 129.384 72.698 129.296C72.3515 128.614 71.9009 128.012 71.3683 127.518C70.6246 126.786 69.7565 126.132 68.9646 125.429C68.6214 125.124 68.2765 124.71 68.5139 124.352C68.7105 124.054 69.215 123.965 69.6564 123.959C71.3238 123.926 72.9837 124.597 73.8721 125.664C74.4637 126.372 74.7105 127.289 74.282 128.062C74.039 128.496 73.605 128.854 73.2916 129.262H73.2915Z" fill="#E6E6E6"/>
<path d="M80.137 129.352C80.0831 129.303 80.0295 129.253 79.9734 129.206C79.7518 129.016 79.5166 128.848 79.2705 128.705C78.6607 128.348 77.9921 128.149 77.3101 128.12C76.5051 128.101 75.7074 128.301 74.9806 128.705C74.8674 128.765 74.7575 128.83 74.6542 128.897C74.4586 129.023 74.2692 129.161 74.0866 129.311C74.07 129.324 74.0533 129.337 74.0365 129.352H80.137Z" fill="#E6E6E6"/>
<path d="M74.9402 129.352H74.0017C74.0295 129.337 74.0593 129.324 74.0871 129.311C74.2522 129.229 74.4173 129.15 74.573 129.059C74.6363 129.03 74.7051 129.022 74.772 129.036C74.8389 129.049 74.9015 129.083 74.9531 129.134C74.9657 129.149 74.9754 129.167 74.9816 129.186C74.9878 129.205 74.9904 129.226 74.9892 129.247C74.9879 129.268 74.9829 129.288 74.9745 129.306C74.966 129.324 74.9543 129.34 74.9402 129.352Z" fill="#60C352"/>
<path d="M69.4337 33.7348L47.3462 22.3625C47.0432 22.2071 46.6995 22.1977 46.3905 22.3365C46.0815 22.4752 45.8323 22.7507 45.6975 23.1027L34.9296 51.4227C34.7962 51.7757 34.7884 52.1758 34.908 52.5355C35.0276 52.8951 35.2648 53.1849 35.5677 53.3414L57.6551 64.7138C57.9582 64.8692 58.3018 64.8785 58.6108 64.7398C58.9198 64.6011 59.169 64.3256 59.3039 63.9735L70.0717 35.6536C70.2052 35.3006 70.2129 34.9004 70.0933 34.5408C69.9738 34.1812 69.7365 33.8913 69.4337 33.7348Z" fill="#D6D6E3"/>
<path d="M47.0662 23.1049C47 23.0705 46.9286 23.0517 46.8561 23.0495C46.7836 23.0473 46.7115 23.0618 46.6438 23.0921C46.5761 23.1223 46.5142 23.1678 46.4617 23.2259C46.4091 23.2841 46.3669 23.3537 46.3375 23.4308L35.5696 51.7507C35.5111 51.9069 35.5079 52.0836 35.5608 52.2425C35.6138 52.4014 35.7185 52.5294 35.8522 52.5988L57.9397 63.9712C58.0059 64.0055 58.0773 64.0243 58.1498 64.0265C58.2223 64.0286 58.2944 64.0142 58.3621 63.9839C58.4297 63.9537 58.4916 63.9082 58.5442 63.8501C58.5968 63.792 58.639 63.7224 58.6684 63.6453L69.4363 35.3253C69.4948 35.1692 69.498 34.9924 69.4451 34.8335C69.3921 34.6747 69.2874 34.5466 69.1537 34.4772L47.0662 23.1049Z" fill="#F2F2F2"/>
<path d="M51.9619 32.0396L47.0809 29.5251L47.1931 29.229L52.0746 31.7435L51.9619 32.0396Z" fill="#D3D3D3"/>
<path d="M63.357 40.3341L46.3093 31.554L46.4213 31.2578L63.4696 40.0381L63.357 40.3341Z" fill="#D3D3D3"/>
<path d="M62.5855 42.3629L45.5378 33.5828L45.6498 33.2866L62.6981 42.0669L62.5855 42.3629Z" fill="#D3D3D3"/>
<path d="M46.1328 47.3707L41.2518 44.8562L41.364 44.5601L46.2455 47.0746L46.1328 47.3707Z" fill="#D3D3D3"/>
<path d="M57.5279 55.6652L40.4802 46.885L40.5922 46.5889L57.6405 55.3692L57.5279 55.6652Z" fill="#D3D3D3"/>
<path d="M56.7563 57.6938L39.7086 48.9158L39.8206 48.6196L56.8689 57.3977L56.7563 57.6938Z" fill="#D3D3D3"/>
<path d="M49.0466 39.7039L44.1655 37.1916L44.2775 36.8955L49.159 39.4079L49.0466 39.7039Z" fill="#D3D3D3"/>
<path d="M60.4435 47.9985L43.3939 39.2205L43.5059 38.9243L60.556 47.7024L60.4435 47.9985Z" fill="#D3D3D3"/>
<path d="M59.6719 50.0273L42.6223 41.2493L42.7343 40.9531L59.7844 49.7312L59.6719 50.0273Z" fill="#D3D3D3"/>
<path d="M119 129.676C119 129.719 118.993 129.761 118.979 129.8C118.965 129.84 118.944 129.875 118.919 129.905C118.893 129.935 118.862 129.959 118.828 129.976C118.794 129.992 118.758 130 118.722 130H0.278183C0.205515 129.998 0.136389 129.963 0.0855892 129.903C0.0347891 129.842 0.00634766 129.761 0.00634766 129.676C0.00634766 129.592 0.0347891 129.51 0.0855892 129.45C0.136389 129.389 0.205515 129.354 0.278183 129.353H118.722C118.758 129.352 118.795 129.361 118.828 129.377C118.862 129.393 118.893 129.417 118.919 129.447C118.944 129.477 118.965 129.513 118.979 129.552C118.993 129.592 119 129.634 119 129.676Z" fill="#F2F2F2"/>
<path d="M29.6686 -0.000141899L27.4653 0.365234L40.2868 105.074L42.4901 104.709L29.6686 -0.000141899Z" fill="#090814"/>
<path d="M54.2531 128.058H18.0869V129.568H54.2531V128.058Z" fill="#D6D6E3"/>
<path d="M35.6731 79.3083L24.9381 129.495L23.6843 129.106L34.4193 78.9224L35.6731 79.3083Z" fill="#D6D6E3"/>
<path d="M35.7063 81.4367C36.7306 81.4367 37.5609 80.4704 37.5609 79.2784C37.5609 78.0864 36.7306 77.1201 35.7063 77.1201C34.682 77.1201 33.8517 78.0864 33.8517 79.2784C33.8517 80.4704 34.682 81.4367 35.7063 81.4367Z" fill="#090814"/>
<path d="M92.2926 11.1088C92.5048 11.708 92.5865 12.359 92.5306 13.0038L95.0075 19.0905L92.3979 20.4482L90.1652 14.1283C89.7458 13.7071 89.4232 13.1707 89.2268 12.5679C88.7168 11.0678 88.9888 9.5246 89.8351 9.12358C90.6813 8.72255 91.7805 9.61132 92.2907 11.1114L92.2926 11.1088Z" fill="#ED9DA0"/>
<path d="M101.647 51.4588L88.5518 17.9507L93.717 14.001C93.717 14.001 104.873 46.3139 105.133 47.8313C105.392 49.3487 101.648 51.4573 101.648 51.4573L101.647 51.4588Z" fill="#6C63FF"/>
<path d="M104.517 30.6201H100.207V38.578L104.956 36.7606L104.517 30.6201Z" fill="#ED9DA0"/>
<path d="M100.794 32.8218C103.408 32.8218 105.528 30.3558 105.528 27.3137C105.528 24.2717 103.408 21.8057 100.794 21.8057C98.1805 21.8057 96.0614 24.2717 96.0614 27.3137C96.0614 30.3558 98.1805 32.8218 100.794 32.8218Z" fill="#ED9DA0"/>
<path d="M102 27.7411C104.424 26.5468 104.144 30.8319 104.144 30.8319L104.606 31.8531L106.643 27.3442C107.869 22.9714 103.583 20.4589 103.583 20.4589C102.187 18.5445 99.3743 20.7848 99.3743 20.7848C95.3218 19.7381 97.2786 23.7137 97.2786 23.7137C97.2786 23.7137 98.6602 23.7504 98.6602 25.0519C98.6602 26.3535 100.166 26.2635 100.166 26.2635L101.346 28.6679L101.999 27.7463V27.7419L102 27.7411Z" fill="#090814"/>
<path d="M106.383 119.353H102.499V125.765H106.383V119.353Z" fill="#ED9DA0"/>
<path d="M102.925 129.439C102.907 129.443 100.418 129.648 98.7134 129.648C98.3053 129.648 97.9418 129.638 97.6674 129.607C96.6344 129.497 95.6514 128.61 95.1562 128.092C95.0478 127.979 94.9724 127.829 94.9405 127.663C94.9085 127.498 94.9215 127.325 94.9777 127.168C95.0185 127.056 95.0805 126.955 95.1591 126.874C95.2378 126.793 95.331 126.734 95.432 126.7L98.1584 125.793L102.572 122.327L102.623 122.431C102.864 122.928 103.064 123.45 103.22 123.991C103.249 124.086 103.26 124.186 103.253 124.286C103.245 124.386 103.22 124.483 103.177 124.57C103.127 124.657 103.056 124.726 102.973 124.768C103.053 124.866 103.303 125.064 104.075 125.206C105.2 125.416 105.438 124.058 105.447 124L105.454 123.955L105.488 123.929C106.023 123.527 106.354 123.344 106.467 123.383C106.539 123.406 106.658 123.447 106.977 127.147C107.133 127.722 107.168 128.333 107.081 128.927C106.914 129.814 103.591 129.508 102.927 129.439H102.925Z" fill="#090814"/>
<path d="M95.8926 76.1661L101.319 120.76H107.076L107.314 77.5302C109.288 70.3513 107.726 63.4619 107.726 63.4619L97.5381 64.0677L95.893 76.1659L95.8926 76.1661Z" fill="#090814"/>
<path d="M99.257 35.232L97.5451 43.7188L95.3918 64.0704L107.727 63.4646C107.727 63.4646 109.207 53.1304 110.042 47.579C110.877 42.0276 104.849 31.7798 104.849 31.7798L99.2567 35.2332L99.257 35.232Z" fill="#6C63FF"/>
<path d="M105.108 120.913L101.744 118.653L98.9892 124.206L102.353 126.466L105.108 120.913Z" fill="#ED9DA0"/>
<path d="M100.162 129.439C100.143 129.443 97.6544 129.648 95.95 129.648C95.542 129.648 95.1784 129.638 94.904 129.607C93.8709 129.497 92.888 128.61 92.3927 128.092C92.2844 127.979 92.209 127.829 92.177 127.663C92.1451 127.498 92.1581 127.325 92.2143 127.168C92.2551 127.056 92.3171 126.955 92.3957 126.874C92.4743 126.793 92.5676 126.734 92.6686 126.7L95.3949 125.793L99.8091 122.327L99.8593 122.431C100.1 122.928 100.3 123.45 100.456 123.991C100.486 124.086 100.497 124.186 100.489 124.286C100.482 124.386 100.456 124.483 100.414 124.57C100.363 124.657 100.293 124.726 100.21 124.768C100.289 124.866 100.54 125.064 101.311 125.206C102.437 125.416 102.675 124.058 102.684 124L102.691 123.955L102.724 123.929C103.26 123.527 103.591 123.344 103.704 123.383C103.776 123.406 103.895 123.447 104.214 127.147C104.369 127.722 104.405 128.333 104.318 128.927C104.151 129.814 100.827 129.508 100.163 129.439H100.161H100.162Z" fill="#090814"/>
<path d="M96.1272 76.0051L100.667 120.759H105.483L107.479 77.3742C109.13 70.1695 107.823 63.2554 107.823 63.2554L97.5034 63.8641L96.1272 76.0051Z" fill="#090814"/>
<path d="M90.6511 75.3566C90.8259 74.7416 91.1285 74.1863 91.532 73.7401L93.0658 67.2456L95.8033 68.1975L93.9542 74.6833C94.0359 75.321 93.9797 75.9724 93.7906 76.5784C93.3362 78.1044 92.266 79.0649 91.3999 78.7282C90.5339 78.3916 90.1981 76.8806 90.6524 75.3568L90.6511 75.3566Z" fill="#ED9DA0"/>
<path d="M106.128 37.7213L97.3019 72.9603L91.1907 72.0343C91.1907 72.0343 100.816 39.1665 101.468 37.822C102.119 36.4775 106.13 37.7182 106.13 37.7182L106.128 37.7213Z" fill="#6C63FF"/>
<path d="M89.5291 10.0532H57.4449C57.0047 10.0537 56.5825 10.2573 56.271 10.6194C55.9595 10.9815 55.7841 11.4726 55.7832 11.985V53.1234C55.784 53.6358 55.9594 54.127 56.2709 54.4892C56.5824 54.8514 57.0046 55.0551 57.4449 55.0556H89.5291C89.9693 55.0551 90.3915 54.8515 90.703 54.4894C91.0144 54.1273 91.1899 53.6362 91.1908 53.1239V11.985C91.1899 11.4726 91.0144 10.9815 90.703 10.6194C90.3915 10.2573 89.9693 10.0537 89.5291 10.0532Z" fill="#D6D6E3"/>
<path d="M57.445 11.1323C57.2505 11.1324 57.064 11.2221 56.9263 11.382C56.7887 11.5418 56.7111 11.7586 56.7106 11.9849V53.1231C56.7111 53.3494 56.7887 53.5663 56.9263 53.7261C57.064 53.8859 57.2505 53.9757 57.445 53.9757H89.5291C89.7236 53.9757 89.9101 53.8859 90.0477 53.7261C90.1854 53.5663 90.263 53.3494 90.2635 53.1231V11.9849C90.263 11.7586 90.1854 11.5418 90.0477 11.382C89.9101 11.2221 89.7236 11.1324 89.5291 11.1323H57.445Z" fill="#F2F2F2"/>
<path d="M67.5215 18.8722H60.4292V18.5483H67.5215V18.8722Z" fill="#090814"/>
<path d="M85.1948 21.8185H60.4292V21.4946H85.1948V21.8185Z" fill="#090814"/>
<path d="M85.1948 24.7667H60.4292V24.4429H85.1948V24.7667Z" fill="#090814"/>
<path d="M67.5215 41.1422H60.4292V40.8184H67.5215V41.1422Z" fill="#090814"/>
<path d="M85.1948 44.0904H60.4292V43.7666H85.1948V44.0904Z" fill="#090814"/>
<path d="M85.1948 47.0392H60.4292V46.7153H85.1948V47.0392Z" fill="#090814"/>
<path d="M67.5215 30.0074H60.4292V29.6836H67.5215V30.0074Z" fill="#090814"/>
<path d="M85.1948 32.9557H60.4292V32.6318H85.1948V32.9557Z" fill="#090814"/>
<path d="M85.1948 35.902H60.4292V35.5781H85.1948V35.902Z" fill="#090814"/>
<path opacity="0.5" d="M103.944 48.6987L99.7817 66.0434" stroke="black" stroke-miterlimit="10"/>
<path d="M56.6643 14.7435C59.0203 14.7435 60.9301 12.5209 60.9301 9.77921C60.9301 7.03752 59.0203 4.81494 56.6643 4.81494C54.3084 4.81494 52.3986 7.03752 52.3986 9.77921C52.3986 12.5209 54.3084 14.7435 56.6643 14.7435Z" fill="white"/>
<path fill-rule="evenodd" clip-rule="evenodd" d="M56.7649 4.44336C55.7942 4.44336 54.8453 4.77834 54.0382 5.40594C53.2311 6.03354 52.602 6.92558 52.2305 7.96924C51.8591 9.0129 51.7619 10.1613 51.9512 11.2693C52.1406 12.3772 52.6081 13.3949 53.2945 14.1937C53.9808 14.9925 54.8554 15.5365 55.8074 15.7569C56.7595 15.9772 57.7463 15.8641 58.6431 15.4318C59.5399 14.9995 60.3065 14.2675 60.8458 13.3282C61.3851 12.3889 61.6729 11.2846 61.6729 10.155C61.673 9.40488 61.5462 8.6621 61.2996 7.96908C61.0529 7.27605 60.6914 6.64635 60.2357 6.11595C59.7799 5.58555 59.2388 5.16484 58.6433 4.87785C58.0478 4.59087 57.4095 4.44322 56.7649 4.44336ZM58.7341 8.46226C58.7882 8.36888 58.8087 8.25453 58.7913 8.14374C58.7738 8.03295 58.7197 7.93454 58.6406 7.8696C58.5615 7.80466 58.4637 7.77837 58.3682 7.79637C58.2726 7.81437 58.1869 7.87522 58.1295 7.96587L56.0393 11.4235L55.1767 10.4023C55.1064 10.3283 55.0146 10.2883 54.9198 10.2904C54.8251 10.2925 54.7346 10.3367 54.6669 10.4139C54.5992 10.491 54.5594 10.5953 54.5555 10.7055C54.5517 10.8157 54.5842 10.9234 54.6463 11.0067L55.8204 12.3967C55.8585 12.4416 55.9047 12.4762 55.9556 12.4981C56.0065 12.5201 56.0609 12.5288 56.1149 12.5236C56.169 12.5185 56.2215 12.4996 56.2686 12.4683C56.3158 12.4371 56.3565 12.3942 56.3879 12.3427L58.7341 8.46226Z" fill="#6C63FF"/>
</g>
<defs>
<clipPath id="clip0_198_310">
<rect width="119" height="130" fill="white"/>
</clipPath>
</defs>
</svg>
