<svg width="121" height="122" viewBox="0 0 121 122" fill="none" xmlns="http://www.w3.org/2000/svg">
<g clip-path="url(#clip0_198_360)">
<path d="M0.000152499 120.695C-0.00769244 120.774 0.0132067 120.853 0.0583804 120.915C0.103554 120.978 0.169416 121.018 0.24188 121.029H120.758C120.827 121.01 120.889 120.968 120.932 120.907C120.976 120.847 121 120.772 121 120.695C121 120.618 120.976 120.544 120.932 120.483C120.889 120.423 120.827 120.38 120.758 120.362H0.24188C0.169416 120.372 0.103554 120.413 0.0583804 120.475C0.0132067 120.537 -0.00769244 120.616 0.000152499 120.695Z" fill="#CCCCCC"/>
<path d="M29.8668 54.3945C29.8668 54.3945 31.457 61.7823 30.0935 61.7823C28.73 61.7823 26.0046 58.3343 26.0046 58.3343V56.364L29.8668 54.3945Z" fill="#ED9DA0"/>
<path d="M26.5725 47.8682L30.661 54.7645H27.7082L26.5725 47.8682Z" fill="#D6D6E3"/>
<path d="M29.0712 107.962H23.6196V112.888H29.0712V107.962Z" fill="#ED9DA0"/>
<path d="M11.5805 107.223L10.4449 112.888L4.76624 111.409L6.12897 106.484L11.5805 107.223Z" fill="#ED9DA0"/>
<path d="M28.6169 56.2417C28.6169 56.2417 30.4347 57.2269 30.6614 61.66C30.888 66.0931 29.98 77.6685 29.98 77.6685C29.98 77.6685 30.8886 82.8397 29.98 87.5199C29.0714 92.2001 30.8886 109.193 29.7534 109.193C28.6182 109.193 22.7117 109.932 22.4846 109.193C22.2575 108.454 22.0303 97.3715 22.0303 97.3715C22.0303 97.3715 20.2125 91.7068 22.0303 88.2583C22.0303 88.2583 17.9415 91.9525 17.9415 92.9378C17.9415 93.9232 13.6257 109.194 11.5816 109.439C9.53753 109.685 3.85859 109.194 4.99456 106.977C6.13053 104.759 8.85601 94.6631 8.85601 94.6631C8.85601 94.6631 10.9004 87.2753 14.5346 84.0727L12.7168 68.3105C12.7168 68.3105 8.8554 57.7201 11.1267 56.2424C13.3981 54.7647 28.6169 56.2417 28.6169 56.2417Z" fill="#090814"/>
<path d="M45.4514 63.2928L38.2859 52.2076C38.0426 51.832 37.6718 51.5765 37.2549 51.497C36.8381 51.4175 36.4091 51.5205 36.0623 51.7835L24.0579 60.9056C23.7116 61.1694 23.4759 61.5714 23.4026 62.0234C23.3292 62.4754 23.4243 62.9405 23.6668 63.3166L30.832 74.4015C31.0754 74.777 31.4461 75.0326 31.863 75.112C32.2799 75.1915 32.7088 75.0885 33.0557 74.8255L45.06 65.7034C45.4063 65.4397 45.642 65.0378 45.7153 64.5859C45.7887 64.134 45.6938 63.669 45.4514 63.2928Z" fill="#E6E6E6"/>
<path d="M45.0743 63.579L37.9092 52.4943C37.7359 52.2269 37.4719 52.0449 37.175 51.9883C36.8782 51.9317 36.5728 52.0051 36.3257 52.1923L24.3214 61.3144C24.0748 61.5023 23.907 61.7886 23.8548 62.1104C23.8025 62.4323 23.8702 62.7634 24.0429 63.0313L31.208 74.116C31.3813 74.3834 31.6453 74.5654 31.9422 74.622C32.239 74.6786 32.5445 74.6052 32.7915 74.418L44.7958 65.2959C45.0424 65.108 45.2103 64.8217 45.2625 64.4999C45.3147 64.178 45.247 63.8469 45.0743 63.579Z" fill="white"/>
<path d="M37.3967 66.9209L33.7735 61.3156C33.733 61.2531 33.7172 61.1756 33.7294 61.1004C33.7416 61.0251 33.7809 60.9582 33.8386 60.9144C33.8963 60.8705 33.9677 60.8533 34.0371 60.8666C34.1065 60.8798 34.1682 60.9224 34.2086 60.9849L37.8321 66.5905C37.8725 66.6531 37.8884 66.7305 37.8762 66.8057C37.864 66.881 37.8247 66.9479 37.767 66.9918C37.7093 67.0356 37.6379 67.0528 37.5685 67.0396C37.499 67.0263 37.4373 66.9838 37.3969 66.9212L37.3967 66.9209Z" fill="#E6E6E6"/>
<path d="M37.2913 68.4527L33.0384 61.8732C32.9979 61.8107 32.9821 61.7333 32.9943 61.658C33.0065 61.5827 33.0458 61.5158 33.1035 61.472C33.1612 61.4281 33.2326 61.4109 33.302 61.4242C33.3714 61.4374 33.4331 61.48 33.4735 61.5426L37.7265 68.122C37.7669 68.1845 37.7828 68.262 37.7706 68.3372C37.7584 68.4125 37.7191 68.4794 37.6614 68.5232C37.6037 68.5671 37.5322 68.5843 37.4628 68.5711C37.3934 68.5578 37.3317 68.5152 37.2913 68.4527Z" fill="#E6E6E6"/>
<path d="M34.1033 69.4207L30.4799 63.8151C30.4395 63.7526 30.4236 63.6751 30.4358 63.5999C30.448 63.5246 30.4873 63.4577 30.545 63.4139C30.6027 63.37 30.6741 63.3528 30.7435 63.3661C30.8129 63.3793 30.8746 63.4219 30.9151 63.4845L34.5385 69.09C34.5789 69.1526 34.5948 69.23 34.5826 69.3053C34.5704 69.3805 34.5311 69.4474 34.4734 69.4913C34.4157 69.5351 34.3443 69.5523 34.2749 69.5391C34.2055 69.5259 34.1438 69.4833 34.1033 69.4207Z" fill="#E6E6E6"/>
<path d="M33.9976 70.9532L29.7447 64.3737C29.7042 64.3112 29.6884 64.2337 29.7006 64.1585C29.7128 64.0832 29.752 64.0163 29.8098 63.9725C29.8675 63.9286 29.9389 63.9114 30.0083 63.9247C30.0777 63.9379 30.1394 63.9805 30.1798 64.043L34.4328 70.6225C34.4732 70.685 34.4891 70.7625 34.4769 70.8377C34.4646 70.913 34.4254 70.9799 34.3677 71.0237C34.31 71.0676 34.2385 71.0848 34.1691 71.0715C34.0997 71.0583 34.038 71.0157 33.9976 70.9532Z" fill="#E6E6E6"/>
<path d="M31.8951 60.8705L30.6128 58.8869C30.5934 58.8568 30.5858 58.8197 30.5916 58.7836C30.5975 58.7474 30.6164 58.7153 30.6441 58.6943L32.2725 57.4568C32.3002 57.4358 32.3345 57.4275 32.3678 57.4338C32.4011 57.4402 32.4307 57.4606 32.4501 57.4907L33.7324 59.4743C33.7518 59.5044 33.7594 59.5415 33.7536 59.5777C33.7477 59.6138 33.7288 59.6459 33.7011 59.6669L32.0727 60.9044C32.045 60.9255 32.0107 60.9337 31.9774 60.9274C31.9441 60.921 31.9145 60.9006 31.8951 60.8705Z" fill="#E6E6E6"/>
<path d="M28.6015 63.3709L27.3192 61.3872C27.2998 61.3572 27.2922 61.32 27.2981 61.2839C27.3039 61.2478 27.3228 61.2157 27.3505 61.1946L28.9794 59.9568C29.0071 59.9358 29.0414 59.9275 29.0747 59.9338C29.108 59.9402 29.1376 59.9606 29.1571 59.9907L30.4393 61.9743C30.4587 62.0044 30.4663 62.0415 30.4605 62.0777C30.4546 62.1138 30.4358 62.1459 30.4081 62.1669L28.7796 63.4044C28.7659 63.4149 28.7504 63.4224 28.734 63.4264C28.7176 63.4304 28.7007 63.4309 28.6841 63.4278C28.6676 63.4247 28.6517 63.418 28.6376 63.4083C28.6234 63.3985 28.6111 63.3858 28.6015 63.3709Z" fill="#E6E6E6"/>
<path d="M41.0663 64.1428L38.3955 60.0109C38.3551 59.9484 38.3392 59.8709 38.3514 59.7957C38.3637 59.7204 38.4029 59.6535 38.4606 59.6097C38.5183 59.5658 38.5898 59.5486 38.6592 59.5619C38.7286 59.5751 38.7903 59.6177 38.8307 59.6803L41.5017 63.8123C41.5421 63.8749 41.558 63.9523 41.5458 64.0276C41.5336 64.1028 41.4943 64.1698 41.4366 64.2136C41.3789 64.2575 41.3075 64.2747 41.2381 64.2614C41.1687 64.2482 41.107 64.2056 41.0665 64.143L41.0663 64.1428Z" fill="#6C63FF"/>
<path d="M40.961 65.6742L37.6607 60.5686C37.6202 60.506 37.6044 60.4286 37.6166 60.3533C37.6288 60.2781 37.6681 60.2111 37.7258 60.1673C37.7835 60.1234 37.8549 60.1062 37.9243 60.1195C37.9937 60.1327 38.0554 60.1753 38.0959 60.2379L41.3966 65.3442C41.437 65.4068 41.4529 65.4842 41.4407 65.5595C41.4285 65.6347 41.3892 65.7016 41.3315 65.7455C41.2738 65.7893 41.2024 65.8065 41.133 65.7933C41.0636 65.7801 41.0019 65.7375 40.9614 65.6749L40.961 65.6742Z" fill="#6C63FF"/>
<path d="M36.181 60.331L33.7183 56.5212C33.6989 56.4912 33.6913 56.454 33.6972 56.4179C33.703 56.3818 33.7219 56.3497 33.7496 56.3286L36.491 54.2454C36.5187 54.2243 36.553 54.2161 36.5863 54.2224C36.6196 54.2288 36.6492 54.2492 36.6687 54.2792L39.1315 58.0894C39.1509 58.1194 39.1585 58.1565 39.1527 58.1927C39.1468 58.2288 39.128 58.2609 39.1003 58.2819L36.3588 60.3652C36.3311 60.3862 36.2968 60.3945 36.2635 60.3881C36.2302 60.3818 36.2006 60.3613 36.1812 60.3313L36.181 60.331Z" fill="#6C63FF"/>
<path d="M24.7554 13.6341C24.7554 13.6341 22.4839 21.7616 23.1652 22.7472C23.8466 23.7328 15.8965 17.3289 15.8965 17.3289C15.8965 17.3289 18.8493 15.1123 17.7143 11.9106L24.7554 13.6341Z" fill="#ED9DA0"/>
<path d="M21.8025 16.0974C25.0642 16.0974 27.7083 13.2305 27.7083 9.69395C27.7083 6.15744 25.0642 3.29053 21.8025 3.29053C18.5408 3.29053 15.8966 6.15744 15.8966 9.69395C15.8966 13.2305 18.5408 16.0974 21.8025 16.0974Z" fill="#ED9DA0"/>
<path d="M15.2151 16.5898C15.2151 16.5898 17.9409 17.575 19.3039 19.2991C20.6669 21.0231 23.8469 21.27 23.8469 21.27C23.8469 21.27 26.658 22.9867 27.7083 25.9495C28.8278 29.1074 28.1774 33.5532 27.7083 34.5696C26.7999 36.5405 26.7999 41.4659 26.7999 41.4659L27.9355 52.795C27.9355 52.795 32.0244 56.9818 28.8441 57.4745C25.6639 57.9673 19.9854 57.2288 16.578 57.4745C13.1705 57.7202 9.30921 58.2133 10.445 55.7505C11.5808 53.2876 12.9437 51.5637 11.5807 46.6373C10.5142 42.7829 10.5603 28.3712 10.6309 22.2859C10.6405 21.4499 10.8472 20.6304 11.2315 19.9055C11.6158 19.1806 12.1648 18.5744 12.8262 18.1445L15.2151 16.5898Z" fill="#D6D6E3"/>
<path d="M24.0736 54.271C24.0736 54.271 25.107 56.7381 25.2093 58.2116C26.0043 69.6639 20.212 58.2116 20.212 58.2116V56.2405L24.0736 54.271Z" fill="#ED9DA0"/>
<path d="M8.56096 111.328C8.56096 111.328 11.842 108.719 11.842 110.142C11.842 111.565 15.5603 117.257 15.5603 117.257C15.5603 117.257 21.685 122 16.654 122C11.623 122 9.43556 121.052 9.43556 121.052L4.18583 117.257C4.18583 117.257 2.87356 115.597 3.31093 113.7C3.74831 111.802 5.27965 109.193 5.27965 109.193C5.27965 109.193 7.02991 111.802 8.56096 111.328Z" fill="#090814"/>
<path d="M28.5722 111.95C28.5722 111.95 29.0117 109.567 30.5499 110.758C32.088 111.95 36.2629 115.523 36.2629 115.523C36.2629 115.523 43.9537 117.43 39.1194 119.812C34.2852 122.193 23.2985 118.859 23.2985 118.859C23.2985 118.859 22.859 111.235 23.2985 111.473C23.738 111.711 28.3525 112.427 28.5722 111.95Z" fill="#090814"/>
<path opacity="0.1" d="M18.5084 24.3477L17.827 39.3711L24.431 53.8716L25.551 53.4097L18.7365 39.8637L18.5084 24.3477Z" fill="black"/>
<path d="M13.1707 19.7913L11.4671 19.4214C11.4671 19.4214 6.35619 23.485 7.94691 31.6125C9.53763 39.74 16.5786 52.0542 16.5786 52.0542C16.5786 52.0542 18.1687 54.2709 18.623 54.7635C19.0773 55.256 19.986 54.7635 19.5316 55.5022C19.0771 56.241 20.2129 56.7336 20.2129 56.7336C20.2129 56.7336 25.2102 56.7336 24.7559 54.7626C24.3016 52.7917 16.5786 38.7542 16.5786 38.7542L17.7142 25.7011C17.7142 25.7011 18.6222 19.2987 13.1707 19.7913Z" fill="#D6D6E3"/>
<path opacity="0.1" d="M11.0128 42.5727V40.8486L18.7359 54.6413L11.0128 42.5727Z" fill="black"/>
<path d="M25.9931 3.76147L26.9696 3.33754C26.9696 3.33754 24.9282 0.900235 22.0877 1.1122L22.8866 0.158511C22.8866 0.158511 20.9339 -0.689195 19.1587 1.53614C18.2255 2.70589 17.1455 4.08057 16.4728 5.62921H15.4274L15.8638 6.67103L14.3364 7.71285L15.904 7.52578C15.7555 8.42529 15.8064 9.35018 16.0524 10.2242L16.0104 11.0478C16.0104 11.0478 17.8282 7.99935 17.8282 7.57509V8.63476C17.8282 8.63476 18.8046 7.68107 18.8046 7.04582L19.337 7.78754L19.6032 6.62189L22.8871 7.78754L22.3547 6.83386L24.3961 7.1518L23.5972 5.98615C23.5972 5.98615 25.9049 7.36377 25.9936 8.52943C26.0823 9.69509 27.2361 11.1779 27.2361 11.1779L27.7685 10.1182C27.7685 10.1182 28.5671 5.3509 25.9931 3.76147Z" fill="#090814"/>
<path d="M103.558 109.03H69.3116C68.8803 109.029 68.4668 108.843 68.162 108.512C67.8571 108.181 67.6857 107.733 67.6855 107.265V56.8593C67.6861 56.3918 67.8575 55.9437 68.1624 55.6132C68.4672 55.2827 68.8805 55.0968 69.3116 55.0962H103.558C103.989 55.0968 104.402 55.2827 104.707 55.6133C105.012 55.9438 105.183 56.3918 105.184 56.8593V107.265C105.184 107.733 105.012 108.181 104.708 108.512C104.403 108.843 103.989 109.029 103.558 109.03Z" fill="#F2F2F2"/>
<path d="M79.1538 75.016C79.0788 75.0221 79.0067 75.0495 78.9447 75.0956C79.2598 75.0743 79.5729 75.0272 79.8814 74.9546L79.1538 75.016Z" fill="#2F2E41"/>
<path d="M78.5308 61.1305C77.0919 61.1308 75.6933 61.6461 74.5521 62.5964C73.4109 63.5466 72.5909 64.8788 72.2193 66.3861C71.8478 67.8933 71.9456 69.4914 72.4974 70.9323C73.0493 72.3731 74.0243 73.5762 75.2713 74.3548C75.6023 74.5627 75.9498 74.7381 76.3097 74.879L76.3701 74.9017C77.0643 75.166 77.7948 75.3006 78.5305 75.2996C78.673 75.2996 78.815 75.2945 78.9552 75.2832C79.2791 75.2614 79.601 75.2131 79.9182 75.1386C80.0957 75.0967 80.2698 75.0467 80.4346 74.9921C80.4746 74.9795 80.5123 74.9668 80.5534 74.9527C82.0326 74.4306 83.2916 73.3535 84.1039 71.915C84.9162 70.4765 85.2286 68.771 84.9848 67.1051C84.7411 65.4392 83.9572 63.9222 82.7742 62.827C81.5911 61.7317 80.0865 61.1299 78.5308 61.1299V61.1305ZM82.3214 73.5223C81.7577 73.9939 81.1232 74.3567 80.4458 74.5946L80.334 74.6329C80.1776 74.6853 80.0131 74.7312 79.8437 74.7707C79.5436 74.8417 79.239 74.8878 78.9324 74.9084C78.799 74.9186 78.6656 74.9237 78.5301 74.9237C77.8337 74.9239 77.1423 74.7965 76.4851 74.5469L76.4274 74.5251C76.0695 74.3857 75.7246 74.2099 75.3973 74C74.2573 73.2723 73.3626 72.1674 72.8447 70.8475C72.3268 69.5276 72.213 68.0625 72.52 66.6673C72.827 65.2721 73.5387 64.0205 74.5504 63.0964C75.5622 62.1722 76.8206 61.6243 78.1408 61.5332C79.461 61.442 80.7734 61.8123 81.8851 62.5898C82.9968 63.3673 83.8492 64.5109 84.317 65.8526C84.7848 67.1942 84.8434 68.6632 84.4841 70.0437C84.1248 71.4241 83.3666 72.6432 82.321 73.5218L82.3214 73.5223Z" fill="#CCCCCC"/>
<path d="M96.9285 68.1876H87.2382C87.0348 68.1876 86.8396 68.0999 86.6958 67.9439C86.5519 67.7879 86.4711 67.5764 86.4711 67.3557C86.4711 67.1351 86.5519 66.9236 86.6958 66.7676C86.8396 66.6116 87.0348 66.5239 87.2382 66.5239H96.9285C97.132 66.5239 97.3271 66.6116 97.471 66.7676C97.6149 66.9236 97.6957 67.1351 97.6957 67.3557C97.6957 67.5764 97.6149 67.7879 97.471 67.9439C97.3271 68.0999 97.132 68.1876 96.9285 68.1876Z" fill="#E6E6E6"/>
<path d="M100.091 70.9927H87.238C87.0345 70.9927 86.8394 70.9051 86.6955 70.7491C86.5517 70.5931 86.4708 70.3815 86.4708 70.1609C86.4708 69.9403 86.5517 69.7287 86.6955 69.5727C86.8394 69.4167 87.0345 69.3291 87.238 69.3291H100.091C100.294 69.3291 100.489 69.4167 100.633 69.5727C100.777 69.7287 100.858 69.9403 100.858 70.1609C100.858 70.3815 100.777 70.5931 100.633 70.7491C100.489 70.9051 100.294 70.9927 100.091 70.9927H100.091Z" fill="#E6E6E6"/>
<path d="M96.9138 81.753H72.7789C72.5754 81.753 72.3803 81.6654 72.2364 81.5094C72.0926 81.3534 72.0117 81.1418 72.0117 80.9212C72.0117 80.7006 72.0926 80.489 72.2364 80.333C72.3803 80.177 72.5754 80.0894 72.7789 80.0894H96.9139C97.1174 80.0894 97.3125 80.177 97.4564 80.333C97.6003 80.489 97.6811 80.7006 97.6811 80.9212C97.6811 81.1418 97.6003 81.3534 97.4564 81.5094C97.3125 81.6654 97.1174 81.753 96.9139 81.753H96.9138Z" fill="#E6E6E6"/>
<path d="M100.076 84.5577H72.7789C72.5754 84.5577 72.3803 84.47 72.2364 84.314C72.0926 84.158 72.0117 83.9465 72.0117 83.7259C72.0117 83.5052 72.0926 83.2937 72.2364 83.1377C72.3803 82.9817 72.5754 82.894 72.7789 82.894H100.076C100.28 82.894 100.475 82.9817 100.619 83.1377C100.763 83.2937 100.843 83.5052 100.843 83.7259C100.843 83.9465 100.763 84.158 100.619 84.314C100.475 84.47 100.28 84.5577 100.076 84.5577H100.076Z" fill="#E6E6E6"/>
<path d="M117.844 74.696C117.876 74.3802 117.817 74.0616 117.675 73.7833C117.534 73.5051 117.317 73.2807 117.054 73.1408L90.6613 59.1545C90.3223 58.9747 89.9313 58.9483 89.5743 59.081C89.2173 59.2137 88.9236 59.4948 88.7577 59.8624L78.8569 81.8226C78.6917 82.1904 78.6677 82.6142 78.7903 83.0011C78.9128 83.388 79.1719 83.7065 79.5106 83.8866L105.903 97.8729C106.243 98.052 106.633 98.0779 106.99 97.9451C107.347 97.8122 107.641 97.5314 107.807 97.1641L117.707 75.2048C117.779 75.0451 117.826 74.8729 117.844 74.6958V74.696Z" fill="white"/>
<path d="M117.844 74.696C117.876 74.3802 117.817 74.0616 117.675 73.7833C117.534 73.5051 117.317 73.2807 117.054 73.1408L90.6613 59.1545C90.3223 58.9747 89.9313 58.9483 89.5743 59.081C89.2173 59.2137 88.9236 59.4948 88.7577 59.8624L78.8569 81.8226C78.6917 82.1904 78.6677 82.6142 78.7903 83.0011C78.9128 83.388 79.1719 83.7065 79.5106 83.8866L105.903 97.8729C106.243 98.052 106.633 98.0779 106.99 97.9451C107.347 97.8122 107.641 97.5314 107.807 97.1641L117.707 75.2048C117.779 75.0451 117.826 74.8729 117.844 74.6958V74.696ZM107.658 97.0848C107.512 97.4089 107.253 97.6567 106.938 97.7739C106.623 97.8911 106.278 97.8682 105.979 97.7101L79.5858 83.724C79.2869 83.565 79.0583 83.284 78.9502 82.9426C78.842 82.6011 78.8632 82.2271 79.009 81.9026L88.9078 59.9426C89.0544 59.6185 89.3136 59.3707 89.6285 59.2535C89.9434 59.1363 90.2883 59.1593 90.5876 59.3174L116.98 73.3036C117.279 73.4626 117.508 73.7436 117.616 74.0851C117.724 74.4265 117.703 74.8005 117.557 75.125L107.658 97.0848Z" fill="#3F3D56"/>
<path d="M114.964 75.6955L108.053 91.0301C108.006 91.1324 107.925 91.2107 107.825 91.2478C107.726 91.2848 107.617 91.2776 107.523 91.2277L83.5146 78.505C83.4975 78.4961 83.4811 78.4855 83.4657 78.4736C83.3871 78.4156 83.3303 78.3288 83.3058 78.2292C83.2814 78.1296 83.2907 78.0238 83.3323 77.931L90.2443 62.5965C90.2905 62.4942 90.3721 62.4159 90.4715 62.3788C90.5708 62.3418 90.6796 62.349 90.774 62.3989L114.782 75.1216C114.876 75.1716 114.948 75.2601 114.983 75.3678C115.017 75.4755 115.01 75.5935 114.964 75.6959L114.964 75.6955Z" fill="#E6E6E6"/>
<path d="M93.8874 74.9156C95.8075 74.9156 97.3641 73.2279 97.3641 71.146C97.3641 69.0642 95.8075 67.3765 93.8874 67.3765C91.9673 67.3765 90.4108 69.0642 90.4108 71.146C90.4108 73.2279 91.9673 74.9156 93.8874 74.9156Z" fill="#6C63FF"/>
<path d="M98.9785 86.7755L83.6546 78.6557C83.6353 78.6455 83.6169 78.6333 83.5996 78.6195L96.9823 68.8481C97.0647 68.7868 97.1607 68.7503 97.2604 68.7424C97.3601 68.7344 97.4599 68.7553 97.5497 68.8029C97.6395 68.8505 97.7161 68.9231 97.7716 69.0133C97.827 69.1034 97.8595 69.2079 97.8655 69.3161L98.612 81.0284L98.6479 81.589L98.9785 86.7755Z" fill="#090814"/>
<path opacity="0.2" d="M98.9787 86.7754L93.7468 84.0029L98.1386 81.3189L98.4548 81.1258L98.6128 81.0288L98.6488 81.5894L98.9787 86.7754Z" fill="black"/>
<path d="M107.511 91.2964L94.2573 84.273L98.6491 81.5891L98.9653 81.3957L104.688 77.898C104.784 77.849 104.888 77.8223 104.993 77.8196C105.099 77.8169 105.204 77.8383 105.301 77.8823C105.399 77.9264 105.487 77.9922 105.559 78.0755C105.632 78.1588 105.687 78.2577 105.722 78.3657C105.73 78.3955 105.736 78.4258 105.741 78.4565L107.511 91.2964Z" fill="#090814"/>
<path d="M113.726 120.362H55.698C54.6692 120.361 53.6828 119.917 52.9553 119.128C52.2278 118.34 51.8185 117.27 51.8174 116.155V81.6021C51.8185 80.4866 52.2278 79.4171 52.9553 78.6283C53.6828 77.8395 54.6692 77.3958 55.698 77.3945H62.8125C63.7779 77.3937 64.7088 77.7839 65.4226 78.4886L73.1379 84.4622C73.6409 84.9606 74.2978 85.2367 74.9791 85.2362H114.086C114.601 85.2361 115.11 85.3468 115.585 85.562C116.059 85.7771 116.489 86.0924 116.851 86.4895C117.212 86.8866 117.496 87.3576 117.688 87.875C117.88 88.3925 117.975 88.9461 117.968 89.5037L117.607 116.215C117.588 117.319 117.172 118.371 116.446 119.146C115.721 119.922 114.744 120.358 113.726 120.362Z" fill="#6C63FF"/>
<path d="M78.7584 72.7793H78.7648C79.8324 72.716 80.8379 72.2149 81.5774 71.3776C82.3169 70.5402 82.735 69.4293 82.747 68.27C82.7589 67.1108 82.3638 65.99 81.6418 65.1349C80.9197 64.2798 79.9248 63.7544 78.8587 63.6653C78.8456 63.6643 78.8324 63.6661 78.82 63.6708C78.8076 63.6754 78.7962 63.6828 78.7864 63.6924C78.7767 63.702 78.7689 63.7137 78.7636 63.7267C78.7582 63.7397 78.7553 63.7538 78.7551 63.768L78.6631 72.6751C78.663 72.6888 78.6653 72.7025 78.67 72.7152C78.6747 72.7279 78.6817 72.7395 78.6906 72.7493C78.6994 72.7592 78.71 72.767 78.7216 72.7724C78.7333 72.7778 78.7458 72.7806 78.7584 72.7808V72.7793Z" fill="#6C63FF"/>
<path d="M75.4553 65.1367C75.4881 65.1371 75.5193 65.1515 75.5423 65.1769L78.3702 68.3128C78.3817 68.3253 78.3907 68.3402 78.3967 68.3565C78.4028 68.3729 78.4058 68.3904 78.4056 68.408L78.3616 72.6698C78.3615 72.6881 78.3579 72.7061 78.351 72.7228C78.3441 72.7395 78.3341 72.7545 78.3216 72.7667C78.3092 72.7794 78.2944 72.7892 78.2784 72.7954C78.2623 72.8016 78.2452 72.8042 78.2282 72.8029C77.4418 72.7394 76.6873 72.4393 76.0495 71.9364C75.4118 71.4335 74.916 70.7476 74.618 69.956C74.32 69.1644 74.2315 68.2983 74.3625 67.4551C74.4935 66.612 74.8389 65.8251 75.3597 65.1831C75.3709 65.1692 75.3847 65.158 75.4002 65.1502C75.4156 65.1423 75.4324 65.138 75.4494 65.1375L75.4553 65.1367Z" fill="#E6E6E6"/>
<path d="M78.3304 63.6274C78.3619 63.6275 78.3922 63.6404 78.4152 63.6636C78.4275 63.6763 78.4372 63.6915 78.4437 63.7085C78.4503 63.7254 78.4535 63.7436 78.4533 63.7619L78.4135 67.6075C78.4133 67.6339 78.4058 67.6597 78.392 67.6815C78.3782 67.7033 78.3588 67.7203 78.3362 67.7301C78.3135 67.74 78.2887 67.7424 78.2648 67.737C78.241 67.7315 78.2191 67.7186 78.202 67.6997L75.7337 64.9641C75.722 64.9511 75.7128 64.9356 75.7068 64.9187C75.7007 64.9017 75.6979 64.8836 75.6986 64.8654C75.6992 64.8473 75.7032 64.8294 75.7104 64.813C75.7176 64.7966 75.7278 64.7819 75.7403 64.7698C76.4581 64.0849 77.3679 63.6825 78.3227 63.6278L78.3304 63.6274Z" fill="#090814"/>
<path d="M84.8938 103.459C82.6356 103.459 80.7966 101.342 80.7966 98.7398C80.7966 96.1379 82.6345 94.021 84.8938 94.021C87.153 94.021 88.9909 96.1379 88.9909 98.7398C88.9909 101.342 87.1529 103.459 84.8938 103.459ZM84.8938 95.213C83.241 95.213 81.8965 96.7949 81.8965 98.7395C81.8965 100.684 83.2411 102.266 84.8938 102.266C86.5464 102.266 87.891 100.684 87.891 98.7395C87.891 96.7952 86.5464 95.2132 84.8938 95.2132V95.213Z" fill="#D6D6E3"/>
<path d="M88.7732 111.682H81.0126C80.3284 111.681 79.6725 111.386 79.1887 110.862C78.7049 110.337 78.4328 109.626 78.4321 108.884V100.631C78.4325 100.123 78.6189 99.636 78.9503 99.2767C79.2817 98.9173 79.7311 98.7153 80.1998 98.7148H89.5874C90.0561 98.7152 90.5055 98.9172 90.837 99.2766C91.1684 99.6359 91.3547 100.123 91.355 100.631V108.884C91.3544 109.626 91.0821 110.337 90.598 110.862C90.114 111.387 89.4577 111.682 88.7732 111.682Z" fill="#F2F2F2"/>
<path d="M86.4055 103.41C86.4057 103.119 86.3343 102.833 86.1985 102.581C86.0628 102.33 85.8676 102.122 85.6332 101.979C85.3987 101.837 85.1335 101.764 84.8647 101.77C84.596 101.775 84.3334 101.858 84.1041 102.011C83.8748 102.163 83.6871 102.378 83.5602 102.635C83.4334 102.892 83.372 103.181 83.3824 103.472C83.3927 103.764 83.4745 104.047 83.6193 104.292C83.7641 104.538 83.9667 104.737 84.2061 104.87V107.435H85.5817V104.87C85.8297 104.732 86.0379 104.523 86.1833 104.266C86.3287 104.008 86.4056 103.712 86.4055 103.41Z" fill="#6C63FF"/>
</g>
<defs>
<clipPath id="clip0_198_360">
<rect width="121" height="122" fill="white"/>
</clipPath>
</defs>
</svg>
