<svg width="253" height="191" viewBox="0 0 253 191" fill="none" xmlns="http://www.w3.org/2000/svg">
<g clip-path="url(#clip0_183_143)">
<path d="M50.4086 191C78.2485 191 100.817 189.14 100.817 186.846C100.817 184.552 78.2485 182.692 50.4086 182.692C22.5687 182.692 0 184.552 0 186.846C0 189.14 22.5687 191 50.4086 191Z" fill="#E6E6E6"/>
<path d="M38.5315 42.3795C47.3041 38.3308 58.2305 40.896 68.9014 42.6764C69.0007 40.5203 70.2043 37.8963 68.9435 36.3922C67.4117 34.5647 67.5527 32.6446 68.4745 30.7135C70.8315 25.7752 67.4545 20.5205 64.0448 16.1514C63.2763 15.1688 62.305 14.3968 61.2099 13.898C60.1147 13.3993 58.9266 13.1879 57.742 13.2809L51.4258 13.7705C49.8888 13.8896 48.422 14.5152 47.2216 15.5636C46.0213 16.612 45.1446 18.0331 44.709 19.6369C43.2008 21.8626 42.3936 24.0821 42.9018 26.29C40.6428 27.9652 40.2633 29.9872 41.2784 32.2667C42.1392 33.7019 42.13 35.099 41.2392 36.4574C40.0694 38.1893 39.1734 40.1204 38.588 42.1716L38.5315 42.3795Z" fill="#2F2E41"/>
<path d="M247.005 165.116H68.2083C66.6183 165.116 65.0934 164.431 63.9691 163.211C62.8448 161.991 62.2131 160.337 62.2131 158.611C127.027 150.438 190.622 150.438 253 158.611C253 160.337 252.368 161.991 251.244 163.211C250.12 164.431 248.595 165.116 247.005 165.116Z" fill="#2F2E41"/>
<path d="M253 158.994L62.2131 158.611L84.3247 118.241L84.4305 118.05V29.078C84.4304 27.9981 84.6264 26.9287 85.0072 25.931C85.388 24.9333 85.9462 24.0267 86.65 23.2631C87.3537 22.4995 88.1892 21.8937 89.1087 21.4805C90.0282 21.0673 91.0138 20.8546 92.009 20.8547H222.146C223.141 20.8546 224.127 21.0673 225.046 21.4805C225.966 21.8937 226.801 22.4995 227.505 23.2631C228.209 24.0267 228.767 24.9333 229.148 25.931C229.529 26.9287 229.725 27.9981 229.725 29.078V118.662L253 158.994Z" fill="#3F3D56"/>
<path d="M91.8363 26.5947C91.1818 26.5955 90.5543 26.878 90.0915 27.3802C89.6287 27.8823 89.3684 28.5632 89.3677 29.2733V110.397C89.3684 111.107 89.6288 111.788 90.0915 112.29C90.5543 112.792 91.1818 113.074 91.8363 113.075H223.377C224.031 113.074 224.659 112.792 225.122 112.29C225.584 111.788 225.845 111.107 225.846 110.397V29.2733C225.845 28.5632 225.584 27.8823 225.122 27.3802C224.659 26.878 224.031 26.5956 223.377 26.5947H91.8363Z" fill="white"/>
<path d="M92.3874 123.79C92.1852 123.79 91.9873 123.853 91.817 123.971C91.6467 124.09 91.5111 124.259 91.4262 124.458L84.613 140.529C84.5388 140.704 84.5064 140.897 84.5186 141.089C84.5309 141.281 84.5875 141.466 84.6832 141.628C84.7789 141.791 84.9107 141.924 85.0663 142.016C85.222 142.109 85.3966 142.157 85.574 142.157H228.853C229.033 142.157 229.211 142.107 229.368 142.012C229.526 141.916 229.658 141.779 229.753 141.613C229.848 141.446 229.902 141.256 229.91 141.061C229.918 140.865 229.88 140.671 229.799 140.496L222.393 124.424C222.306 124.233 222.171 124.072 222.004 123.96C221.837 123.848 221.644 123.789 221.447 123.79H92.3874Z" fill="#2F2E41"/>
<path d="M157.078 25.2554C157.954 25.2554 158.665 24.4845 158.665 23.5335C158.665 22.5825 157.954 21.8115 157.078 21.8115C156.201 21.8115 155.491 22.5825 155.491 23.5335C155.491 24.4845 156.201 25.2554 157.078 25.2554Z" fill="white"/>
<path d="M142.994 145.218C142.762 145.219 142.536 145.302 142.351 145.455C142.167 145.609 142.034 145.824 141.973 146.068L140.264 152.955C140.222 153.126 140.216 153.304 140.248 153.477C140.279 153.65 140.347 153.812 140.446 153.952C140.544 154.092 140.672 154.205 140.817 154.283C140.963 154.361 141.123 154.402 141.285 154.402H173.787C173.956 154.402 174.122 154.358 174.272 154.274C174.422 154.191 174.551 154.069 174.649 153.92C174.747 153.771 174.811 153.598 174.835 153.417C174.858 153.236 174.842 153.051 174.787 152.879L172.59 145.991C172.518 145.765 172.383 145.57 172.204 145.431C172.024 145.293 171.81 145.218 171.59 145.218H142.994Z" fill="#2F2E41"/>
<path d="M229.725 116.71V118.241H84.3247L84.4341 118.05V116.71H229.725Z" fill="#2F2E41"/>
<path d="M225.669 53.572C239.303 53.572 250.355 41.5795 250.355 26.786C250.355 11.9925 239.303 0 225.669 0C212.035 0 200.983 11.9925 200.983 26.786C200.983 41.5795 212.035 53.572 225.669 53.572Z" fill="#F59E0B"/>
<path d="M235.896 38.4569H215.442C215.068 38.4565 214.71 38.2951 214.445 38.0082C214.181 37.7212 214.032 37.3321 214.031 36.9263V23.5333C214.032 23.1275 214.181 22.7384 214.445 22.4515C214.71 22.1645 215.068 22.0031 215.442 22.0027H235.896C236.27 22.0031 236.629 22.1645 236.893 22.4515C237.158 22.7384 237.306 23.1275 237.307 23.5333V36.9263C237.306 37.3321 237.158 37.7212 236.893 38.0082C236.629 38.2951 236.27 38.4565 235.896 38.4569ZM215.442 23.5333V36.9263H235.897L235.896 23.5333L215.442 23.5333Z" fill="white"/>
<path d="M232.017 23.5335H219.321V17.411C219.321 12.9764 221.991 9.75781 225.669 9.75781C229.347 9.75781 232.017 12.9764 232.017 17.411L232.017 23.5335ZM220.732 22.0028H230.606V17.411C230.606 13.8062 228.576 11.2884 225.669 11.2884C222.762 11.2884 220.732 13.8062 220.732 17.411L220.732 22.0028Z" fill="white"/>
<path d="M225.669 31.3779C226.448 31.3779 227.08 30.6926 227.08 29.8473C227.08 29.0019 226.448 28.3167 225.669 28.3167C224.89 28.3167 224.259 29.0019 224.259 29.8473C224.259 30.6926 224.89 31.3779 225.669 31.3779Z" fill="white"/>
<path d="M208.436 85.5589H106.777C106.278 85.5583 105.799 85.3429 105.446 84.9599C105.093 84.577 104.895 84.0578 104.894 83.5162V56.1536C104.895 55.612 105.093 55.0928 105.446 54.7098C105.799 54.3269 106.278 54.1115 106.777 54.1108H208.436C208.935 54.1115 209.414 54.3269 209.767 54.7098C210.12 55.0928 210.318 55.612 210.319 56.1536V83.5162C210.318 84.0578 210.12 84.577 209.767 84.9599C209.414 85.3429 208.935 85.5583 208.436 85.5589ZM106.777 54.9279C106.477 54.9283 106.19 55.0575 105.979 55.2873C105.767 55.5171 105.648 55.8286 105.647 56.1536V83.5162C105.648 83.8412 105.767 84.1527 105.979 84.3825C106.19 84.6122 106.477 84.7415 106.777 84.7418H208.436C208.736 84.7415 209.023 84.6122 209.235 84.3825C209.446 84.1527 209.565 83.8412 209.566 83.5162V56.1536C209.565 55.8286 209.446 55.5171 209.235 55.2873C209.023 55.0575 208.736 54.9283 208.436 54.9279L106.777 54.9279Z" fill="#E6E6E6"/>
<path d="M122.573 77.1059C126.808 77.1059 130.241 73.3804 130.241 68.7849C130.241 64.1893 126.808 60.4639 122.573 60.4639C118.337 60.4639 114.904 64.1893 114.904 68.7849C114.904 73.3804 118.337 77.1059 122.573 77.1059Z" fill="#E6E6E6"/>
<path d="M140.284 63.2376C140.116 63.2373 139.949 63.2729 139.794 63.3425C139.638 63.412 139.497 63.5142 139.378 63.643C139.26 63.7718 139.165 63.9248 139.101 64.0932C139.037 64.2616 139.003 64.4421 139.003 64.6244C139.003 64.8067 139.037 64.9872 139.101 65.1556C139.165 65.324 139.26 65.477 139.378 65.6058C139.497 65.7346 139.638 65.8367 139.794 65.9063C139.949 65.9758 140.116 66.0115 140.284 66.0112H200.537C200.876 66.0112 201.201 65.8651 201.441 65.605C201.68 65.3449 201.815 64.9922 201.815 64.6244C201.815 64.2566 201.68 63.9038 201.441 63.6437C201.201 63.3837 200.876 63.2376 200.537 63.2376H140.284Z" fill="#E6E6E6"/>
<path d="M140.283 71.5586C139.944 71.5586 139.619 71.7047 139.38 71.9648C139.14 72.2249 139.005 72.5776 139.005 72.9454C139.005 73.3132 139.14 73.666 139.38 73.9261C139.619 74.1862 139.944 74.3323 140.283 74.3323H166.211C166.55 74.3323 166.875 74.1862 167.114 73.9261C167.354 73.666 167.489 73.3132 167.489 72.9454C167.489 72.5776 167.354 72.2249 167.114 71.9648C166.875 71.7047 166.55 71.5586 166.211 71.5586H140.283Z" fill="#E6E6E6"/>
<path d="M84.0744 72.1198L65.2818 82.9607L65.0439 73.9266C71.1777 72.8155 77.0133 70.8811 82.4092 67.7318L84.3746 62.4629C84.5888 61.8887 84.9369 61.3849 85.3847 61.0008C85.8325 60.6167 86.3647 60.3656 86.929 60.2721C87.4933 60.1786 88.0703 60.246 88.6033 60.4675C89.1364 60.6891 89.6072 61.0572 89.9695 61.5358C90.4996 62.2361 90.7646 63.1288 90.7108 64.0331C90.657 64.9374 90.2884 65.7858 89.6797 66.4062L84.0744 72.1198Z" fill="#FFB8B8"/>
<path d="M38.1569 134.711C38.0198 134.166 37.9907 133.595 38.0715 133.036C38.1523 132.477 38.3412 131.944 38.6257 131.47L42.7538 124.595C43.7303 122.97 45.2285 121.795 46.9578 121.3C48.6872 120.805 50.5244 121.025 52.1129 121.916C50.378 125.121 50.6198 127.932 52.7121 130.375C49.4641 132.095 46.4622 134.316 43.7994 136.968C43.3132 137.327 42.755 137.556 42.171 137.634C41.5871 137.712 40.9944 137.637 40.4424 137.417C39.8904 137.196 39.3949 136.835 38.9974 136.365C38.5998 135.894 38.3117 135.327 38.1569 134.711Z" fill="#2F2E41"/>
<path d="M84.9303 125.723C84.3056 126.852 83.4238 127.789 82.3695 128.442C81.3152 129.096 80.1238 129.444 78.9097 129.454L51.4848 129.68L50.2954 122.194L62.4273 118.322L52.1984 109.805L63.3788 95.6082L83.6858 116.145C84.8727 117.346 85.6439 118.952 85.8704 120.695C86.0969 122.438 85.765 124.213 84.9303 125.723Z" fill="#2F2E41"/>
<path d="M47.203 176.915H40.7803C35.0136 134.024 29.1436 91.0127 46.4894 74.959L66.9471 78.5726L64.3304 97.4151L52.9121 111.612L47.203 176.915Z" fill="#2F2E41"/>
<path d="M52.849 186.631C52.3462 186.78 51.8201 186.812 51.3052 186.724C50.7903 186.636 50.2984 186.431 49.8617 186.123L42.888 185.106C41.3894 184.046 40.307 182.421 39.8506 180.544C39.3943 178.668 39.5966 176.674 40.4183 174.95C43.3716 176.833 45.9623 176.57 48.2136 174.3C49.8043 177.785 52.4252 177.572 54.9283 180.509C55.2597 181.036 55.4702 181.642 55.5422 182.275C55.6142 182.909 55.5456 183.552 55.3422 184.151C55.1387 184.75 54.8063 185.288 54.3727 185.719C53.939 186.15 53.4166 186.463 52.849 186.631Z" fill="#2F2E41"/>
<path d="M62.4275 46.3079L50.5334 43.2105C52.5089 38.823 52.6715 33.941 51.7228 28.7559L59.8108 28.4978C60.0642 34.9456 60.8309 40.9695 62.4275 46.3079Z" fill="#FFB8B8"/>
<path d="M65.6962 86.3442C57.0378 92.7462 50.92 86.5633 46.2514 77.0238C46.9002 71.1865 45.8498 64.201 43.9043 56.6107C43.0391 53.2628 43.3621 49.6846 44.8096 46.5826C46.257 43.4805 48.7237 41.08 51.7227 39.855L61.9515 44.5011C70.637 52.183 72.3465 60.5041 69.0879 69.2803L65.6962 86.3442Z" fill="#6C63FF"/>
<path d="M40.7802 52.761L31.265 58.1815L48.1545 69.0224L50.5045 75.3123C50.6614 75.7322 50.7378 76.1822 50.7291 76.6352C50.7204 77.0881 50.6268 77.5343 50.454 77.9467C50.2812 78.3591 50.0327 78.7289 49.7239 79.0337C49.415 79.3385 49.0522 79.5719 48.6575 79.7196C48.2089 79.8874 47.7305 79.9403 47.2598 79.8741C46.7892 79.8079 46.3391 79.6243 45.9447 79.3378C45.5504 79.0513 45.2225 78.6697 44.9868 78.2227C44.7511 77.7758 44.6139 77.2757 44.586 76.7616L44.3484 72.3779L22.882 64.6914C22.1588 64.4324 21.4993 63.9982 20.9536 63.4217C20.4079 62.8453 19.9902 62.1416 19.7323 61.364C19.3562 60.2306 19.3371 58.9939 19.6778 57.8475C20.0186 56.701 20.7 55.7095 21.6154 55.028L38.8771 42.1782L40.7802 52.761Z" fill="#FFB8B8"/>
<path d="M50.2955 53.7934C46.327 51.9063 42.7184 53.9563 38.1636 55.6002L37.45 41.92C41.9727 39.3044 46.2849 38.5992 50.2955 40.6295L50.2955 53.7934Z" fill="#6C63FF"/>
<path d="M55.0426 35.2742C59.2366 35.2742 62.6365 31.5851 62.6365 27.0343C62.6365 22.4836 59.2366 18.7944 55.0426 18.7944C50.8486 18.7944 47.4487 22.4836 47.4487 27.0343C47.4487 31.5851 50.8486 35.2742 55.0426 35.2742Z" fill="#FFB8B8"/>
<path d="M64.1275 25.9945C56.6089 26.7936 50.8798 25.4593 47.2183 21.6603V18.6008H63.4894L64.1275 25.9945Z" fill="#2F2E41"/>
</g>
<defs>
<clipPath id="clip0_183_143">
<rect width="253" height="191" fill="white"/>
</clipPath>
</defs>
</svg>
